<svg xmlns="http://www.w3.org/2000/svg" xmlns:xlink="http://www.w3.org/1999/xlink" width="224" zoomAndPan="magnify" viewBox="0 0 168 48" height="64" preserveAspectRatio="xMidYMid meet" version="1.0"><defs><g/><clipPath id="2c0149fb98"><path d="M 2.21875 0 L 166 0 L 166 46.554688 L 2.21875 46.554688 Z M 2.21875 0 " clip-rule="nonzero"/></clipPath><clipPath id="7514043ece"><path d="M 143.707031 0 C 155.964844 0 165.902344 10.421875 165.902344 23.277344 C 165.902344 36.132812 155.964844 46.554688 143.707031 46.554688 L 24.414062 46.554688 C 12.15625 46.554688 2.21875 36.132812 2.21875 23.277344 C 2.21875 10.421875 12.15625 0 24.414062 0 Z M 143.707031 0 " clip-rule="nonzero"/></clipPath><clipPath id="c58b1f7ca7"><path d="M 2.226562 0 L 166 0 L 166 46.285156 L 2.226562 46.285156 Z M 2.226562 0 " clip-rule="nonzero"/></clipPath><clipPath id="65ba3b2ea5"><path d="M 143.699219 0 C 155.953125 0 165.890625 10.421875 165.890625 23.273438 C 165.890625 36.128906 155.953125 46.550781 143.699219 46.550781 L 24.417969 46.550781 C 12.160156 46.550781 2.226562 36.128906 2.226562 23.273438 C 2.226562 10.421875 12.160156 0 24.417969 0 Z M 143.699219 0 " clip-rule="nonzero"/></clipPath><clipPath id="d6081d72e8"><path d="M 95.160156 11 L 114 11 L 114 35 L 95.160156 35 Z M 95.160156 11 " clip-rule="nonzero"/></clipPath><clipPath id="09b3cc3740"><path d="M 140 10.367188 L 152.464844 10.367188 L 152.464844 33 L 140 33 Z M 140 10.367188 " clip-rule="nonzero"/></clipPath></defs><g clip-path="url(#2c0149fb98)"><g clip-path="url(#7514043ece)"><path fill="#4d4d4d" d="M 2.21875 0 L 165.886719 0 L 165.886719 46.554688 L 2.21875 46.554688 Z M 2.21875 0 " fill-opacity="1" fill-rule="nonzero"/></g></g><g clip-path="url(#c58b1f7ca7)"><g clip-path="url(#65ba3b2ea5)"><path stroke-linecap="butt" transform="matrix(0.734694, 0, 0, 0.734694, 2.225524, 0.00000195918)" fill="none" stroke-linejoin="miter" d="M 192.561437 -0.00000266667 C 209.240367 -0.00000266667 222.76641 14.185329 222.76641 31.677735 C 222.76641 49.175458 209.240367 63.360789 192.561437 63.360789 L 30.206386 63.360789 C 13.52214 63.360789 0.00141391 49.175458 0.00141391 31.677735 C 0.00141391 14.185329 13.52214 -0.00000266667 30.206386 -0.00000266667 Z M 192.561437 -0.00000266667 " stroke="#d9d9d9" stroke-width="8" stroke-opacity="1" stroke-miterlimit="4"/></g></g><path fill="#ffffff" d="M 122.1875 32.050781 C 116.914062 32.050781 114.335938 29.023438 114.335938 25.210938 C 114.335938 21.394531 117.925781 16.574219 123.195312 16.574219 C 128.464844 16.574219 131.042969 19.601562 131.042969 23.414062 C 131.042969 27.226562 127.457031 32.050781 122.1875 32.050781 Z M 122.410156 27.226562 C 124.203125 27.226562 125.4375 25.546875 125.4375 23.75 C 125.4375 21.957031 124.539062 21.507812 122.972656 21.507812 C 121.402344 21.507812 119.941406 23.191406 119.941406 24.984375 C 119.941406 26.777344 120.839844 27.226562 122.410156 27.226562 Z M 136.652344 31.714844 L 131.15625 31.714844 L 135.640625 11.304688 L 141.136719 11.304688 L 136.652344 31.601562 Z M 136.652344 31.714844 " fill-opacity="1" fill-rule="nonzero"/><g clip-path="url(#d6081d72e8)"><path fill="#ffffff" d="M 105.925781 32.050781 C 104.242188 32.050781 102.5625 31.488281 101.664062 30.144531 L 101.328125 31.714844 L 95.160156 34.964844 L 95.832031 31.714844 L 100.320312 11.304688 L 105.8125 11.304688 L 104.242188 18.480469 C 105.476562 17.136719 106.710938 16.574219 108.28125 16.574219 C 111.644531 16.574219 113.773438 18.703125 113.773438 22.742188 C 113.773438 26.777344 111.195312 32.050781 105.925781 32.050781 Z M 108.054688 23.863281 C 108.054688 25.769531 106.710938 27.226562 104.917969 27.226562 C 103.121094 27.226562 103.011719 26.890625 102.449219 26.21875 L 103.347656 22.519531 C 104.019531 21.84375 104.691406 21.507812 105.589844 21.507812 C 106.933594 21.507812 108.054688 22.519531 108.054688 23.976562 Z M 108.054688 23.863281 " fill-opacity="1" fill-rule="evenodd"/></g><g clip-path="url(#09b3cc3740)"><path fill="#ffffff" d="M 146.855469 32.050781 C 143.714844 32.050781 141.363281 30.929688 141.363281 28.347656 C 141.363281 25.769531 141.363281 27.5625 141.472656 27.226562 L 142.707031 21.734375 L 140.242188 21.734375 L 141.363281 17.023438 L 143.828125 17.023438 L 144.726562 12.984375 L 150.894531 10.40625 L 150.222656 12.984375 L 149.324219 17.023438 L 152.351562 17.023438 L 151.230469 21.734375 L 148.203125 21.734375 L 147.417969 25.320312 L 147.417969 25.992188 C 147.417969 26.667969 147.867188 27.226562 148.761719 27.226562 C 149.660156 27.226562 149.4375 27.226562 149.546875 27.117188 L 149.546875 31.488281 C 148.988281 31.9375 147.976562 32.050781 146.96875 32.050781 Z M 146.855469 32.050781 " fill-opacity="1" fill-rule="nonzero"/></g><g fill="#ffffff" fill-opacity="1"><g transform="translate(12.570561, 30.991598)"><g><path d="M 15.65625 -10.953125 C 15.65625 -10.691406 15.644531 -10.421875 15.625 -10.140625 C 15.601562 -9.859375 15.566406 -9.566406 15.515625 -9.265625 L 15.0625 -6.71875 C 14.769531 -5.039062 14.285156 -3.691406 13.609375 -2.671875 C 12.929688 -1.660156 12.070312 -0.929688 11.03125 -0.484375 C 10 -0.0351562 8.8125 0.1875 7.46875 0.1875 C 6.488281 0.1875 5.597656 -0.00390625 4.796875 -0.390625 C 3.992188 -0.773438 3.351562 -1.359375 2.875 -2.140625 C 2.40625 -2.921875 2.171875 -3.898438 2.171875 -5.078125 C 2.171875 -5.335938 2.179688 -5.601562 2.203125 -5.875 C 2.222656 -6.144531 2.265625 -6.425781 2.328125 -6.71875 L 2.78125 -9.265625 C 3.09375 -11.046875 3.617188 -12.4375 4.359375 -13.4375 C 5.097656 -14.445312 5.984375 -15.15625 7.015625 -15.5625 C 8.054688 -15.976562 9.175781 -16.1875 10.375 -16.1875 C 11.332031 -16.1875 12.210938 -16 13.015625 -15.625 C 13.816406 -15.257812 14.457031 -14.691406 14.9375 -13.921875 C 15.414062 -13.160156 15.65625 -12.171875 15.65625 -10.953125 Z M 11.96875 -10.6875 C 11.96875 -11.488281 11.78125 -12.066406 11.40625 -12.421875 C 11.039062 -12.773438 10.503906 -12.953125 9.796875 -12.953125 C 8.890625 -12.953125 8.171875 -12.675781 7.640625 -12.125 C 7.117188 -11.570312 6.738281 -10.617188 6.5 -9.265625 L 6.046875 -6.71875 C 5.984375 -6.425781 5.941406 -6.15625 5.921875 -5.90625 C 5.898438 -5.65625 5.890625 -5.421875 5.890625 -5.203125 C 5.890625 -4.398438 6.070312 -3.835938 6.4375 -3.515625 C 6.8125 -3.191406 7.347656 -3.03125 8.046875 -3.03125 C 8.953125 -3.03125 9.671875 -3.320312 10.203125 -3.90625 C 10.742188 -4.488281 11.128906 -5.425781 11.359375 -6.71875 L 11.8125 -9.265625 C 11.851562 -9.546875 11.890625 -9.800781 11.921875 -10.03125 C 11.953125 -10.269531 11.96875 -10.488281 11.96875 -10.6875 Z M 11.96875 -10.6875 "/></g></g></g><g fill="#ffffff" fill-opacity="1"><g transform="translate(27.586404, 30.991598)"><g><path d="M 13.28125 -8.15625 C 13.28125 -7.96875 13.265625 -7.773438 13.234375 -7.578125 C 13.210938 -7.390625 13.191406 -7.195312 13.171875 -7 L 12.890625 -5.3125 C 12.554688 -3.320312 11.847656 -1.90625 10.765625 -1.0625 C 9.679688 -0.226562 8.320312 0.1875 6.6875 0.1875 C 6.382812 0.1875 6.070312 0.171875 5.75 0.140625 C 5.425781 0.117188 5.101562 0.0859375 4.78125 0.046875 L 4.109375 3.765625 C 4.097656 3.878906 4.039062 3.976562 3.9375 4.0625 C 3.832031 4.15625 3.722656 4.203125 3.609375 4.203125 L 1.015625 4.203125 C 0.753906 4.203125 0.625 4.078125 0.625 3.828125 C 0.625 3.816406 0.625 3.804688 0.625 3.796875 C 0.625 3.785156 0.625 3.773438 0.625 3.765625 L 3.296875 -11.3125 C 3.316406 -11.488281 3.375 -11.625 3.46875 -11.71875 C 3.5625 -11.8125 3.757812 -11.882812 4.0625 -11.9375 C 4.707031 -12.09375 5.4375 -12.222656 6.25 -12.328125 C 7.070312 -12.441406 7.898438 -12.5 8.734375 -12.5 C 10.179688 -12.5 11.300781 -12.097656 12.09375 -11.296875 C 12.882812 -10.503906 13.28125 -9.457031 13.28125 -8.15625 Z M 9.796875 -8.109375 C 9.796875 -8.609375 9.679688 -8.984375 9.453125 -9.234375 C 9.234375 -9.492188 8.828125 -9.625 8.234375 -9.625 C 7.523438 -9.625 6.929688 -9.585938 6.453125 -9.515625 L 5.265625 -2.796875 C 5.867188 -2.710938 6.410156 -2.671875 6.890625 -2.671875 C 7.554688 -2.671875 8.09375 -2.84375 8.5 -3.1875 C 8.914062 -3.539062 9.21875 -4.25 9.40625 -5.3125 L 9.6875 -7 C 9.707031 -7.207031 9.726562 -7.40625 9.75 -7.59375 C 9.78125 -7.78125 9.796875 -7.953125 9.796875 -8.109375 Z M 9.796875 -8.109375 "/></g></g></g><g fill="#ffffff" fill-opacity="1"><g transform="translate(40.407953, 30.991598)"><g><path d="M 13.03125 -8 C 13.03125 -7.8125 13.019531 -7.617188 13 -7.421875 C 12.976562 -7.234375 12.957031 -7.039062 12.9375 -6.84375 L 12.71875 -5.59375 C 12.644531 -5.25 12.460938 -5.078125 12.171875 -5.078125 L 5.265625 -5.078125 C 5.253906 -4.921875 5.238281 -4.765625 5.21875 -4.609375 C 5.195312 -4.460938 5.1875 -4.328125 5.1875 -4.203125 C 5.1875 -3.640625 5.332031 -3.242188 5.625 -3.015625 C 5.914062 -2.796875 6.40625 -2.6875 7.09375 -2.6875 C 7.550781 -2.6875 8.046875 -2.695312 8.578125 -2.71875 C 9.109375 -2.738281 9.617188 -2.765625 10.109375 -2.796875 C 10.597656 -2.835938 10.988281 -2.867188 11.28125 -2.890625 C 11.445312 -2.898438 11.5625 -2.882812 11.625 -2.84375 C 11.6875 -2.800781 11.707031 -2.695312 11.6875 -2.53125 L 11.375 -0.90625 C 11.351562 -0.726562 11.304688 -0.597656 11.234375 -0.515625 C 11.171875 -0.429688 11.039062 -0.367188 10.84375 -0.328125 C 10.125 -0.148438 9.421875 -0.0195312 8.734375 0.0625 C 8.054688 0.144531 7.253906 0.1875 6.328125 0.1875 C 5.546875 0.1875 4.8125 0.0351562 4.125 -0.265625 C 3.4375 -0.578125 2.878906 -1.046875 2.453125 -1.671875 C 2.023438 -2.304688 1.8125 -3.125 1.8125 -4.125 C 1.8125 -4.3125 1.820312 -4.503906 1.84375 -4.703125 C 1.863281 -4.910156 1.890625 -5.117188 1.921875 -5.328125 L 2.171875 -6.84375 C 2.503906 -8.71875 3.21875 -10.128906 4.3125 -11.078125 C 5.40625 -12.023438 6.835938 -12.5 8.609375 -12.5 C 9.578125 -12.5 10.390625 -12.296875 11.046875 -11.890625 C 11.703125 -11.492188 12.195312 -10.957031 12.53125 -10.28125 C 12.863281 -9.601562 13.03125 -8.84375 13.03125 -8 Z M 9.796875 -8.171875 C 9.796875 -8.671875 9.664062 -9.050781 9.40625 -9.3125 C 9.144531 -9.570312 8.710938 -9.703125 8.109375 -9.703125 C 7.378906 -9.703125 6.820312 -9.472656 6.4375 -9.015625 C 6.0625 -8.566406 5.796875 -7.972656 5.640625 -7.234375 L 9.6875 -7.234375 C 9.707031 -7.398438 9.726562 -7.5625 9.75 -7.71875 C 9.78125 -7.875 9.796875 -8.023438 9.796875 -8.171875 Z M 9.796875 -8.171875 "/></g></g></g><g fill="#ffffff" fill-opacity="1"><g transform="translate(53.100435, 30.991598)"><g><path d="M 13.34375 -8.921875 C 13.34375 -8.523438 13.296875 -8.085938 13.203125 -7.609375 L 11.96875 -0.453125 C 11.945312 -0.335938 11.878906 -0.234375 11.765625 -0.140625 C 11.648438 -0.046875 11.535156 0 11.421875 0 L 8.828125 0 C 8.722656 0 8.640625 -0.0351562 8.578125 -0.109375 C 8.515625 -0.179688 8.484375 -0.265625 8.484375 -0.359375 C 8.484375 -0.378906 8.484375 -0.394531 8.484375 -0.40625 C 8.484375 -0.425781 8.484375 -0.441406 8.484375 -0.453125 L 9.71875 -7.609375 C 9.75 -7.796875 9.773438 -7.96875 9.796875 -8.125 C 9.816406 -8.289062 9.828125 -8.4375 9.828125 -8.5625 C 9.828125 -8.96875 9.71875 -9.242188 9.5 -9.390625 C 9.28125 -9.546875 9.003906 -9.625 8.671875 -9.625 C 8.265625 -9.625 7.835938 -9.539062 7.390625 -9.375 C 6.941406 -9.21875 6.59375 -9.066406 6.34375 -8.921875 L 4.859375 -0.453125 C 4.847656 -0.335938 4.785156 -0.234375 4.671875 -0.140625 C 4.566406 -0.046875 4.457031 0 4.34375 0 L 1.75 0 C 1.5 0 1.375 -0.128906 1.375 -0.390625 C 1.375 -0.398438 1.375 -0.410156 1.375 -0.421875 C 1.375 -0.429688 1.375 -0.441406 1.375 -0.453125 L 3.40625 -11.890625 C 3.425781 -12.003906 3.484375 -12.101562 3.578125 -12.1875 C 3.671875 -12.28125 3.773438 -12.328125 3.890625 -12.328125 L 6.234375 -12.328125 C 6.484375 -12.328125 6.609375 -12.207031 6.609375 -11.96875 C 6.609375 -11.945312 6.609375 -11.929688 6.609375 -11.921875 C 6.609375 -11.921875 6.609375 -11.910156 6.609375 -11.890625 L 6.515625 -11.375 C 7.003906 -11.75 7.539062 -12.03125 8.125 -12.21875 C 8.71875 -12.40625 9.300781 -12.5 9.875 -12.5 C 10.488281 -12.5 11.054688 -12.375 11.578125 -12.125 C 12.109375 -11.882812 12.535156 -11.503906 12.859375 -10.984375 C 13.179688 -10.460938 13.34375 -9.773438 13.34375 -8.921875 Z M 13.34375 -8.921875 "/></g></g></g><g fill="#ffffff" fill-opacity="1"><g transform="translate(66.266192, 30.991598)"><g/></g></g><g fill="#ffffff" fill-opacity="1"><g transform="translate(71.644358, 30.991598)"><g><path d="M 4.125 -13.734375 C 3.851562 -13.734375 3.738281 -13.875 3.78125 -14.15625 L 4.125 -16.15625 C 4.15625 -16.269531 4.207031 -16.367188 4.28125 -16.453125 C 4.351562 -16.546875 4.472656 -16.59375 4.640625 -16.59375 L 7.4375 -16.59375 C 7.726562 -16.59375 7.84375 -16.445312 7.78125 -16.15625 L 7.4375 -14.15625 C 7.425781 -14.039062 7.378906 -13.941406 7.296875 -13.859375 C 7.222656 -13.773438 7.097656 -13.734375 6.921875 -13.734375 Z M 6.609375 -12.328125 C 6.890625 -12.328125 7.007812 -12.179688 6.96875 -11.890625 L 4.953125 -0.4375 C 4.929688 -0.320312 4.882812 -0.21875 4.8125 -0.125 C 4.75 -0.0390625 4.625 0 4.4375 0 L 1.8125 0 C 1.539062 0 1.425781 -0.144531 1.46875 -0.4375 L 3.484375 -11.890625 C 3.515625 -12.003906 3.578125 -12.101562 3.671875 -12.1875 C 3.765625 -12.28125 3.867188 -12.328125 3.984375 -12.328125 Z M 6.609375 -12.328125 "/></g></g></g><g fill="#ffffff" fill-opacity="1"><g transform="translate(77.883034, 30.991598)"><g><path d="M 13.34375 -8.921875 C 13.34375 -8.523438 13.296875 -8.085938 13.203125 -7.609375 L 11.96875 -0.453125 C 11.945312 -0.335938 11.878906 -0.234375 11.765625 -0.140625 C 11.648438 -0.046875 11.535156 0 11.421875 0 L 8.828125 0 C 8.722656 0 8.640625 -0.0351562 8.578125 -0.109375 C 8.515625 -0.179688 8.484375 -0.265625 8.484375 -0.359375 C 8.484375 -0.378906 8.484375 -0.394531 8.484375 -0.40625 C 8.484375 -0.425781 8.484375 -0.441406 8.484375 -0.453125 L 9.71875 -7.609375 C 9.75 -7.796875 9.773438 -7.96875 9.796875 -8.125 C 9.816406 -8.289062 9.828125 -8.4375 9.828125 -8.5625 C 9.828125 -8.96875 9.71875 -9.242188 9.5 -9.390625 C 9.28125 -9.546875 9.003906 -9.625 8.671875 -9.625 C 8.265625 -9.625 7.835938 -9.539062 7.390625 -9.375 C 6.941406 -9.21875 6.59375 -9.066406 6.34375 -8.921875 L 4.859375 -0.453125 C 4.847656 -0.335938 4.785156 -0.234375 4.671875 -0.140625 C 4.566406 -0.046875 4.457031 0 4.34375 0 L 1.75 0 C 1.5 0 1.375 -0.128906 1.375 -0.390625 C 1.375 -0.398438 1.375 -0.410156 1.375 -0.421875 C 1.375 -0.429688 1.375 -0.441406 1.375 -0.453125 L 3.40625 -11.890625 C 3.425781 -12.003906 3.484375 -12.101562 3.578125 -12.1875 C 3.671875 -12.28125 3.773438 -12.328125 3.890625 -12.328125 L 6.234375 -12.328125 C 6.484375 -12.328125 6.609375 -12.207031 6.609375 -11.96875 C 6.609375 -11.945312 6.609375 -11.929688 6.609375 -11.921875 C 6.609375 -11.921875 6.609375 -11.910156 6.609375 -11.890625 L 6.515625 -11.375 C 7.003906 -11.75 7.539062 -12.03125 8.125 -12.21875 C 8.71875 -12.40625 9.300781 -12.5 9.875 -12.5 C 10.488281 -12.5 11.054688 -12.375 11.578125 -12.125 C 12.109375 -11.882812 12.535156 -11.503906 12.859375 -10.984375 C 13.179688 -10.460938 13.34375 -9.773438 13.34375 -8.921875 Z M 13.34375 -8.921875 "/></g></g></g></svg>
