<svg xmlns="http://www.w3.org/2000/svg" xmlns:xlink="http://www.w3.org/1999/xlink" width="80" zoomAndPan="magnify" viewBox="0 0 60 17.25" height="23" preserveAspectRatio="xMidYMid meet" version="1.0"><defs><g/><clipPath id="978f6fd80d"><path d="M 2.582031 0 L 58.445312 0 L 58.445312 16.402344 L 2.582031 16.402344 Z M 2.582031 0 " clip-rule="nonzero"/></clipPath><clipPath id="75c52cb295"><path d="M 50.816406 0 C 54.996094 0 58.382812 3.671875 58.382812 8.199219 C 58.382812 12.730469 54.996094 16.402344 50.816406 16.402344 L 10.148438 16.402344 C 5.96875 16.402344 2.582031 12.730469 2.582031 8.199219 C 2.582031 3.671875 5.96875 0 10.148438 0 Z M 50.816406 0 " clip-rule="nonzero"/></clipPath><clipPath id="71b0c1a69d"><path d="M 2.585938 0 L 58.296875 0 L 58.296875 16.027344 L 2.585938 16.027344 Z M 2.585938 0 " clip-rule="nonzero"/></clipPath><clipPath id="f62170ed14"><path d="M 50.8125 0 C 54.988281 0 58.375 3.671875 58.375 8.199219 C 58.375 12.726562 54.988281 16.398438 50.8125 16.398438 L 10.148438 16.398438 C 5.972656 16.398438 2.585938 12.726562 2.585938 8.199219 C 2.585938 3.671875 5.972656 0 10.148438 0 Z M 50.8125 0 " clip-rule="nonzero"/></clipPath><clipPath id="6a0fcda268"><path d="M 32.007812 4 L 39 4 L 39 12.238281 L 32.007812 12.238281 Z M 32.007812 4 " clip-rule="nonzero"/></clipPath><clipPath id="1b68bc65c7"><path d="M 47 3.84375 L 52.617188 3.84375 L 52.617188 12 L 47 12 Z M 47 3.84375 " clip-rule="nonzero"/></clipPath></defs><g clip-path="url(#978f6fd80d)"><g clip-path="url(#75c52cb295)"><path fill="#4d4d4d" d="M 2.582031 0 L 58.382812 0 L 58.382812 16.402344 L 2.582031 16.402344 Z M 2.582031 0 " fill-opacity="1" fill-rule="nonzero"/></g></g><g clip-path="url(#71b0c1a69d)"><g clip-path="url(#f62170ed14)"><path stroke-linecap="butt" transform="matrix(0.763208, 0, 0, 0.763208, 2.585368, 0.000000958333)" fill="none" stroke-linejoin="miter" d="M 63.190025 -0.00000125566 C 68.661379 -0.00000125566 73.098857 4.811105 73.098857 10.743097 C 73.098857 16.675089 68.661379 21.486196 63.190025 21.486196 L 9.909578 21.486196 C 4.438224 21.486196 0.000746262 16.675089 0.000746262 10.743097 C 0.000746262 4.811105 4.438224 -0.00000125566 9.909578 -0.00000125566 Z M 63.190025 -0.00000125566 " stroke="#ffffff" stroke-width="1.883497" stroke-opacity="1" stroke-miterlimit="4"/></g></g><path fill="#ffffff" d="M 41.566406 11.507812 C 39.703125 11.507812 38.789062 10.4375 38.789062 9.085938 C 38.789062 7.738281 40.058594 6.035156 41.921875 6.035156 C 43.789062 6.035156 44.699219 7.105469 44.699219 8.453125 C 44.699219 9.800781 43.429688 11.507812 41.566406 11.507812 Z M 41.644531 9.800781 C 42.28125 9.800781 42.71875 9.207031 42.71875 8.570312 C 42.71875 7.9375 42.398438 7.777344 41.84375 7.777344 C 41.289062 7.777344 40.773438 8.375 40.773438 9.007812 C 40.773438 9.644531 41.089844 9.800781 41.644531 9.800781 Z M 46.683594 11.386719 L 44.738281 11.386719 L 46.324219 4.171875 L 48.269531 4.171875 L 46.683594 11.347656 Z M 46.683594 11.386719 " fill-opacity="1" fill-rule="nonzero"/><g clip-path="url(#6a0fcda268)"><path fill="#ffffff" d="M 35.816406 11.507812 C 35.222656 11.507812 34.625 11.308594 34.308594 10.832031 L 34.191406 11.386719 L 32.007812 12.539062 L 32.246094 11.386719 L 33.832031 4.171875 L 35.777344 4.171875 L 35.222656 6.707031 C 35.65625 6.230469 36.09375 6.035156 36.648438 6.035156 C 37.839844 6.035156 38.59375 6.789062 38.59375 8.214844 C 38.59375 9.644531 37.679688 11.507812 35.816406 11.507812 Z M 36.570312 8.613281 C 36.570312 9.285156 36.09375 9.800781 35.460938 9.800781 C 34.824219 9.800781 34.785156 9.683594 34.585938 9.445312 L 34.90625 8.136719 C 35.140625 7.898438 35.378906 7.777344 35.699219 7.777344 C 36.171875 7.777344 36.570312 8.136719 36.570312 8.652344 Z M 36.570312 8.613281 " fill-opacity="1" fill-rule="evenodd"/></g><g clip-path="url(#1b68bc65c7)"><path fill="#ffffff" d="M 50.292969 11.507812 C 49.179688 11.507812 48.347656 11.109375 48.347656 10.199219 C 48.347656 9.285156 48.347656 9.921875 48.386719 9.800781 L 48.824219 7.859375 L 47.953125 7.859375 L 48.347656 6.191406 L 49.21875 6.191406 L 49.539062 4.765625 L 51.71875 3.851562 L 51.480469 4.765625 L 51.164062 6.191406 L 52.234375 6.191406 L 51.839844 7.859375 L 50.765625 7.859375 L 50.488281 9.128906 L 50.488281 9.363281 C 50.488281 9.601562 50.648438 9.800781 50.964844 9.800781 C 51.28125 9.800781 51.203125 9.800781 51.242188 9.761719 L 51.242188 11.308594 C 51.042969 11.46875 50.6875 11.507812 50.332031 11.507812 Z M 50.292969 11.507812 " fill-opacity="1" fill-rule="nonzero"/></g><g fill="#ffffff" fill-opacity="1"><g transform="translate(6.333725, 10.444964)"><g><path d="M 4.859375 -3.390625 C 4.859375 -3.316406 4.851562 -3.234375 4.84375 -3.140625 C 4.84375 -3.054688 4.832031 -2.96875 4.8125 -2.875 L 4.671875 -2.078125 C 4.578125 -1.554688 4.425781 -1.140625 4.21875 -0.828125 C 4.007812 -0.515625 3.742188 -0.285156 3.421875 -0.140625 C 3.097656 -0.00390625 2.726562 0.0625 2.3125 0.0625 C 2.007812 0.0625 1.734375 0.00390625 1.484375 -0.109375 C 1.234375 -0.234375 1.035156 -0.414062 0.890625 -0.65625 C 0.742188 -0.90625 0.671875 -1.210938 0.671875 -1.578125 C 0.671875 -1.648438 0.671875 -1.726562 0.671875 -1.8125 C 0.679688 -1.90625 0.695312 -1.992188 0.71875 -2.078125 L 0.859375 -2.875 C 0.953125 -3.425781 1.113281 -3.859375 1.34375 -4.171875 C 1.570312 -4.484375 1.847656 -4.703125 2.171875 -4.828125 C 2.492188 -4.953125 2.84375 -5.015625 3.21875 -5.015625 C 3.507812 -5.015625 3.78125 -4.957031 4.03125 -4.84375 C 4.28125 -4.726562 4.476562 -4.550781 4.625 -4.3125 C 4.78125 -4.082031 4.859375 -3.773438 4.859375 -3.390625 Z M 3.703125 -3.3125 C 3.703125 -3.5625 3.644531 -3.738281 3.53125 -3.84375 C 3.425781 -3.957031 3.257812 -4.015625 3.03125 -4.015625 C 2.75 -4.015625 2.523438 -3.925781 2.359375 -3.75 C 2.203125 -3.582031 2.085938 -3.289062 2.015625 -2.875 L 1.875 -2.078125 C 1.851562 -1.992188 1.835938 -1.910156 1.828125 -1.828125 C 1.828125 -1.753906 1.828125 -1.679688 1.828125 -1.609375 C 1.828125 -1.359375 1.882812 -1.179688 2 -1.078125 C 2.113281 -0.984375 2.28125 -0.9375 2.5 -0.9375 C 2.78125 -0.9375 3.003906 -1.023438 3.171875 -1.203125 C 3.335938 -1.390625 3.453125 -1.679688 3.515625 -2.078125 L 3.65625 -2.875 C 3.675781 -2.957031 3.6875 -3.035156 3.6875 -3.109375 C 3.695312 -3.179688 3.703125 -3.25 3.703125 -3.3125 Z M 3.703125 -3.3125 "/></g></g></g><g fill="#ffffff" fill-opacity="1"><g transform="translate(10.99101, 10.444964)"><g><path d="M 4.109375 -2.53125 C 4.109375 -2.46875 4.101562 -2.40625 4.09375 -2.34375 C 4.09375 -2.289062 4.085938 -2.234375 4.078125 -2.171875 L 4 -1.640625 C 3.894531 -1.023438 3.671875 -0.585938 3.328125 -0.328125 C 2.992188 -0.0664062 2.578125 0.0625 2.078125 0.0625 C 1.984375 0.0625 1.882812 0.0546875 1.78125 0.046875 C 1.6875 0.0351562 1.585938 0.0234375 1.484375 0.015625 L 1.28125 1.171875 C 1.269531 1.203125 1.25 1.226562 1.21875 1.25 C 1.1875 1.28125 1.15625 1.296875 1.125 1.296875 L 0.3125 1.296875 C 0.226562 1.296875 0.1875 1.257812 0.1875 1.1875 C 0.1875 1.1875 0.1875 1.179688 0.1875 1.171875 L 1.015625 -3.515625 C 1.023438 -3.566406 1.046875 -3.601562 1.078125 -3.625 C 1.109375 -3.65625 1.171875 -3.679688 1.265625 -3.703125 C 1.460938 -3.753906 1.6875 -3.796875 1.9375 -3.828125 C 2.195312 -3.859375 2.453125 -3.875 2.703125 -3.875 C 3.148438 -3.875 3.492188 -3.75 3.734375 -3.5 C 3.984375 -3.257812 4.109375 -2.9375 4.109375 -2.53125 Z M 3.03125 -2.515625 C 3.03125 -2.671875 2.992188 -2.785156 2.921875 -2.859375 C 2.859375 -2.941406 2.738281 -2.984375 2.5625 -2.984375 C 2.332031 -2.984375 2.144531 -2.972656 2 -2.953125 L 1.640625 -0.875 C 1.828125 -0.84375 1.992188 -0.828125 2.140625 -0.828125 C 2.347656 -0.828125 2.515625 -0.878906 2.640625 -0.984375 C 2.765625 -1.097656 2.859375 -1.316406 2.921875 -1.640625 L 3 -2.171875 C 3.007812 -2.234375 3.015625 -2.289062 3.015625 -2.34375 C 3.023438 -2.40625 3.03125 -2.460938 3.03125 -2.515625 Z M 3.03125 -2.515625 "/></g></g></g><g fill="#ffffff" fill-opacity="1"><g transform="translate(14.967723, 10.444964)"><g><path d="M 4.046875 -2.484375 C 4.046875 -2.421875 4.039062 -2.359375 4.03125 -2.296875 C 4.019531 -2.242188 4.015625 -2.1875 4.015625 -2.125 L 3.9375 -1.734375 C 3.914062 -1.628906 3.863281 -1.578125 3.78125 -1.578125 L 1.640625 -1.578125 C 1.628906 -1.523438 1.617188 -1.472656 1.609375 -1.421875 C 1.609375 -1.378906 1.609375 -1.335938 1.609375 -1.296875 C 1.609375 -1.128906 1.648438 -1.007812 1.734375 -0.9375 C 1.828125 -0.863281 1.984375 -0.828125 2.203125 -0.828125 C 2.347656 -0.828125 2.5 -0.832031 2.65625 -0.84375 C 2.820312 -0.851562 2.976562 -0.863281 3.125 -0.875 C 3.28125 -0.882812 3.40625 -0.890625 3.5 -0.890625 C 3.550781 -0.898438 3.585938 -0.894531 3.609375 -0.875 C 3.628906 -0.863281 3.632812 -0.832031 3.625 -0.78125 L 3.53125 -0.28125 C 3.519531 -0.226562 3.503906 -0.1875 3.484375 -0.15625 C 3.460938 -0.132812 3.421875 -0.113281 3.359375 -0.09375 C 3.140625 -0.0390625 2.921875 -0.00390625 2.703125 0.015625 C 2.492188 0.046875 2.25 0.0625 1.96875 0.0625 C 1.71875 0.0625 1.484375 0.015625 1.265625 -0.078125 C 1.054688 -0.179688 0.882812 -0.328125 0.75 -0.515625 C 0.625 -0.710938 0.5625 -0.96875 0.5625 -1.28125 C 0.5625 -1.34375 0.5625 -1.398438 0.5625 -1.453125 C 0.570312 -1.515625 0.582031 -1.582031 0.59375 -1.65625 L 0.671875 -2.125 C 0.773438 -2.707031 0.992188 -3.144531 1.328125 -3.4375 C 1.671875 -3.726562 2.117188 -3.875 2.671875 -3.875 C 2.972656 -3.875 3.222656 -3.8125 3.421875 -3.6875 C 3.628906 -3.5625 3.785156 -3.394531 3.890625 -3.1875 C 3.992188 -2.976562 4.046875 -2.742188 4.046875 -2.484375 Z M 3.03125 -2.53125 C 3.03125 -2.6875 2.988281 -2.804688 2.90625 -2.890625 C 2.832031 -2.972656 2.703125 -3.015625 2.515625 -3.015625 C 2.285156 -3.015625 2.113281 -2.941406 2 -2.796875 C 1.882812 -2.660156 1.800781 -2.472656 1.75 -2.234375 L 3 -2.234375 C 3.007812 -2.296875 3.015625 -2.347656 3.015625 -2.390625 C 3.023438 -2.441406 3.03125 -2.488281 3.03125 -2.53125 Z M 3.03125 -2.53125 "/></g></g></g><g fill="#ffffff" fill-opacity="1"><g transform="translate(18.904398, 10.444964)"><g><path d="M 4.140625 -2.765625 C 4.140625 -2.640625 4.125 -2.503906 4.09375 -2.359375 L 3.703125 -0.140625 C 3.703125 -0.109375 3.679688 -0.078125 3.640625 -0.046875 C 3.609375 -0.015625 3.578125 0 3.546875 0 L 2.734375 0 C 2.703125 0 2.675781 -0.0078125 2.65625 -0.03125 C 2.632812 -0.0507812 2.625 -0.078125 2.625 -0.109375 C 2.625 -0.117188 2.625 -0.125 2.625 -0.125 C 2.625 -0.132812 2.625 -0.140625 2.625 -0.140625 L 3.015625 -2.359375 C 3.023438 -2.421875 3.03125 -2.472656 3.03125 -2.515625 C 3.039062 -2.566406 3.046875 -2.613281 3.046875 -2.65625 C 3.046875 -2.78125 3.007812 -2.863281 2.9375 -2.90625 C 2.875 -2.957031 2.789062 -2.984375 2.6875 -2.984375 C 2.5625 -2.984375 2.425781 -2.957031 2.28125 -2.90625 C 2.144531 -2.851562 2.039062 -2.804688 1.96875 -2.765625 L 1.515625 -0.140625 C 1.503906 -0.109375 1.484375 -0.078125 1.453125 -0.046875 C 1.421875 -0.015625 1.382812 0 1.34375 0 L 0.546875 0 C 0.460938 0 0.421875 -0.0390625 0.421875 -0.125 C 0.421875 -0.132812 0.421875 -0.140625 0.421875 -0.140625 L 1.046875 -3.6875 C 1.054688 -3.726562 1.078125 -3.757812 1.109375 -3.78125 C 1.140625 -3.8125 1.171875 -3.828125 1.203125 -3.828125 L 1.9375 -3.828125 C 2.007812 -3.828125 2.046875 -3.785156 2.046875 -3.703125 C 2.046875 -3.703125 2.046875 -3.695312 2.046875 -3.6875 L 2.015625 -3.53125 C 2.171875 -3.644531 2.335938 -3.726562 2.515625 -3.78125 C 2.703125 -3.84375 2.882812 -3.875 3.0625 -3.875 C 3.25 -3.875 3.425781 -3.835938 3.59375 -3.765625 C 3.757812 -3.691406 3.890625 -3.570312 3.984375 -3.40625 C 4.085938 -3.238281 4.140625 -3.023438 4.140625 -2.765625 Z M 4.140625 -2.765625 "/></g></g></g><g fill="#ffffff" fill-opacity="1"><g transform="translate(22.987868, 10.444964)"><g/></g></g><g fill="#ffffff" fill-opacity="1"><g transform="translate(24.655948, 10.444964)"><g><path d="M 1.28125 -4.25 C 1.195312 -4.25 1.160156 -4.296875 1.171875 -4.390625 L 1.28125 -5.015625 C 1.289062 -5.046875 1.304688 -5.070312 1.328125 -5.09375 C 1.347656 -5.125 1.382812 -5.140625 1.4375 -5.140625 L 2.3125 -5.140625 C 2.394531 -5.140625 2.429688 -5.097656 2.421875 -5.015625 L 2.3125 -4.390625 C 2.300781 -4.359375 2.285156 -4.328125 2.265625 -4.296875 C 2.242188 -4.265625 2.203125 -4.25 2.140625 -4.25 Z M 2.046875 -3.828125 C 2.140625 -3.828125 2.175781 -3.78125 2.15625 -3.6875 L 1.53125 -0.140625 C 1.53125 -0.0976562 1.519531 -0.0625 1.5 -0.03125 C 1.476562 -0.0078125 1.4375 0 1.375 0 L 0.5625 0 C 0.476562 0 0.441406 -0.046875 0.453125 -0.140625 L 1.078125 -3.6875 C 1.085938 -3.726562 1.109375 -3.757812 1.140625 -3.78125 C 1.171875 -3.8125 1.203125 -3.828125 1.234375 -3.828125 Z M 2.046875 -3.828125 "/></g></g></g><g fill="#ffffff" fill-opacity="1"><g transform="translate(26.590925, 10.444964)"><g><path d="M 4.140625 -2.765625 C 4.140625 -2.640625 4.125 -2.503906 4.09375 -2.359375 L 3.703125 -0.140625 C 3.703125 -0.109375 3.679688 -0.078125 3.640625 -0.046875 C 3.609375 -0.015625 3.578125 0 3.546875 0 L 2.734375 0 C 2.703125 0 2.675781 -0.0078125 2.65625 -0.03125 C 2.632812 -0.0507812 2.625 -0.078125 2.625 -0.109375 C 2.625 -0.117188 2.625 -0.125 2.625 -0.125 C 2.625 -0.132812 2.625 -0.140625 2.625 -0.140625 L 3.015625 -2.359375 C 3.023438 -2.421875 3.03125 -2.472656 3.03125 -2.515625 C 3.039062 -2.566406 3.046875 -2.613281 3.046875 -2.65625 C 3.046875 -2.78125 3.007812 -2.863281 2.9375 -2.90625 C 2.875 -2.957031 2.789062 -2.984375 2.6875 -2.984375 C 2.5625 -2.984375 2.425781 -2.957031 2.28125 -2.90625 C 2.144531 -2.851562 2.039062 -2.804688 1.96875 -2.765625 L 1.515625 -0.140625 C 1.503906 -0.109375 1.484375 -0.078125 1.453125 -0.046875 C 1.421875 -0.015625 1.382812 0 1.34375 0 L 0.546875 0 C 0.460938 0 0.421875 -0.0390625 0.421875 -0.125 C 0.421875 -0.132812 0.421875 -0.140625 0.421875 -0.140625 L 1.046875 -3.6875 C 1.054688 -3.726562 1.078125 -3.757812 1.109375 -3.78125 C 1.140625 -3.8125 1.171875 -3.828125 1.203125 -3.828125 L 1.9375 -3.828125 C 2.007812 -3.828125 2.046875 -3.785156 2.046875 -3.703125 C 2.046875 -3.703125 2.046875 -3.695312 2.046875 -3.6875 L 2.015625 -3.53125 C 2.171875 -3.644531 2.335938 -3.726562 2.515625 -3.78125 C 2.703125 -3.84375 2.882812 -3.875 3.0625 -3.875 C 3.25 -3.875 3.425781 -3.835938 3.59375 -3.765625 C 3.757812 -3.691406 3.890625 -3.570312 3.984375 -3.40625 C 4.085938 -3.238281 4.140625 -3.023438 4.140625 -2.765625 Z M 4.140625 -2.765625 "/></g></g></g></svg>
