<svg xmlns="http://www.w3.org/2000/svg" xmlns:xlink="http://www.w3.org/1999/xlink" width="59" zoomAndPan="magnify" viewBox="0 0 44.25 13.5" height="18" preserveAspectRatio="xMidYMid meet" version="1.0"><defs><g/><clipPath id="1e083ce3f4"><path d="M 0.535156 0 L 42.871094 0 L 42.871094 12.429688 L 0.535156 12.429688 Z M 0.535156 0 " clip-rule="nonzero"/></clipPath><clipPath id="411f8587b2"><path d="M 37.089844 0 C 40.257812 0 42.824219 2.78125 42.824219 6.214844 C 42.824219 9.644531 40.257812 12.429688 37.089844 12.429688 L 6.269531 12.429688 C 3.101562 12.429688 0.535156 9.644531 0.535156 6.214844 C 0.535156 2.78125 3.101562 0 6.269531 0 Z M 37.089844 0 " clip-rule="nonzero"/></clipPath><clipPath id="cbf9438711"><path d="M 0.550781 0 L 42.480469 0 L 42.480469 12.292969 L 0.550781 12.292969 Z M 0.550781 0 " clip-rule="nonzero"/></clipPath><clipPath id="690637a74b"><path d="M 37.078125 0 C 40.242188 0 42.804688 2.78125 42.804688 6.210938 C 42.804688 9.640625 40.242188 12.417969 37.078125 12.417969 L 6.28125 12.417969 C 3.117188 12.417969 0.550781 9.640625 0.550781 6.210938 C 0.550781 2.78125 3.117188 0 6.28125 0 Z M 37.078125 0 " clip-rule="nonzero"/></clipPath><clipPath id="1ccb9954cd"><path d="M 29 3.238281 L 36 3.238281 L 36 9 L 29 9 Z M 29 3.238281 " clip-rule="nonzero"/></clipPath><clipPath id="b546b4d8dc"><path d="M 24.878906 3.238281 L 30 3.238281 L 30 9.023438 L 24.878906 9.023438 Z M 24.878906 3.238281 " clip-rule="nonzero"/></clipPath><clipPath id="939ed80986"><path d="M 35 3.238281 L 38.621094 3.238281 L 38.621094 9 L 35 9 Z M 35 3.238281 " clip-rule="nonzero"/></clipPath></defs><g clip-path="url(#1e083ce3f4)"><g clip-path="url(#411f8587b2)"><path fill="#4d4d4d" d="M 0.535156 0 L 42.820312 0 L 42.820312 12.429688 L 0.535156 12.429688 Z M 0.535156 0 " fill-opacity="1" fill-rule="nonzero"/></g></g><g clip-path="url(#cbf9438711)"><g clip-path="url(#690637a74b)"><path stroke-linecap="butt" transform="matrix(0.723214, 0, 0, 0.723214, 0.55103, 0.000000000000006423)" fill="none" stroke-linejoin="miter" d="M 50.506604 -0.000000000000008882 C 54.881604 -0.000000000000008882 58.424814 3.845679 58.424814 8.587964 C 58.424814 13.330248 54.881604 17.170526 50.506604 17.170526 L 7.923267 17.170526 C 3.548267 17.170526 -0.00034448 13.330248 -0.00034448 8.587964 C -0.00034448 3.845679 3.548267 -0.000000000000008882 7.923267 -0.000000000000008882 Z M 50.506604 -0.000000000000008882 " stroke="#d9d9d9" stroke-width="2" stroke-opacity="1" stroke-miterlimit="4"/></g></g><g clip-path="url(#1ccb9954cd)"><path fill="#ffffff" d="M 31.40625 8.472656 C 30.132812 8.472656 29.511719 7.738281 29.511719 6.820312 C 29.511719 5.898438 30.375 4.734375 31.648438 4.734375 C 32.921875 4.734375 33.542969 5.464844 33.542969 6.386719 C 33.542969 7.308594 32.679688 8.472656 31.40625 8.472656 Z M 31.460938 7.308594 C 31.894531 7.308594 32.191406 6.902344 32.191406 6.46875 C 32.191406 6.035156 31.972656 5.925781 31.59375 5.925781 C 31.214844 5.925781 30.863281 6.332031 30.863281 6.765625 C 30.863281 7.199219 31.082031 7.308594 31.460938 7.308594 Z M 34.898438 8.390625 L 33.570312 8.390625 L 34.65625 3.460938 L 35.980469 3.460938 L 34.898438 8.363281 Z M 34.898438 8.390625 " fill-opacity="1" fill-rule="nonzero"/></g><g clip-path="url(#b546b4d8dc)"><path fill="#ffffff" d="M 27.480469 8.472656 C 27.074219 8.472656 26.667969 8.335938 26.449219 8.011719 L 26.371094 8.390625 L 24.878906 9.175781 L 25.042969 8.390625 L 26.125 3.460938 L 27.453125 3.460938 L 27.074219 5.195312 C 27.371094 4.871094 27.667969 4.734375 28.046875 4.734375 C 28.859375 4.734375 29.375 5.25 29.375 6.222656 C 29.375 7.199219 28.753906 8.472656 27.480469 8.472656 Z M 27.992188 6.496094 C 27.992188 6.953125 27.667969 7.308594 27.234375 7.308594 C 26.800781 7.308594 26.777344 7.226562 26.640625 7.0625 L 26.855469 6.167969 C 27.019531 6.007812 27.183594 5.925781 27.398438 5.925781 C 27.722656 5.925781 27.992188 6.167969 27.992188 6.523438 Z M 27.992188 6.496094 " fill-opacity="1" fill-rule="evenodd"/></g><g clip-path="url(#939ed80986)"><path fill="#ffffff" d="M 37.363281 8.472656 C 36.605469 8.472656 36.035156 8.199219 36.035156 7.578125 C 36.035156 6.953125 36.035156 7.386719 36.0625 7.308594 L 36.359375 5.980469 L 35.765625 5.980469 L 36.035156 4.84375 L 36.632812 4.84375 L 36.847656 3.867188 L 38.335938 3.246094 L 38.175781 3.867188 L 37.957031 4.84375 L 38.6875 4.84375 L 38.417969 5.980469 L 37.6875 5.980469 L 37.496094 6.847656 L 37.496094 7.007812 C 37.496094 7.171875 37.605469 7.308594 37.824219 7.308594 C 38.039062 7.308594 37.984375 7.308594 38.011719 7.28125 L 38.011719 8.335938 C 37.875 8.445312 37.632812 8.472656 37.390625 8.472656 Z M 37.363281 8.472656 " fill-opacity="1" fill-rule="nonzero"/></g><g fill="#ffffff" fill-opacity="1"><g transform="translate(3.269299, 8.058114)"><g><path d="M 4.09375 -2.859375 C 4.09375 -2.796875 4.085938 -2.726562 4.078125 -2.65625 C 4.078125 -2.582031 4.070312 -2.503906 4.0625 -2.421875 L 3.9375 -1.75 C 3.863281 -1.3125 3.738281 -0.957031 3.5625 -0.6875 C 3.382812 -0.425781 3.160156 -0.238281 2.890625 -0.125 C 2.617188 -0.0078125 2.304688 0.046875 1.953125 0.046875 C 1.691406 0.046875 1.457031 0 1.25 -0.09375 C 1.039062 -0.195312 0.875 -0.347656 0.75 -0.546875 C 0.625 -0.753906 0.5625 -1.015625 0.5625 -1.328125 C 0.5625 -1.390625 0.5625 -1.457031 0.5625 -1.53125 C 0.570312 -1.601562 0.585938 -1.675781 0.609375 -1.75 L 0.71875 -2.421875 C 0.800781 -2.890625 0.9375 -3.253906 1.125 -3.515625 C 1.320312 -3.773438 1.554688 -3.957031 1.828125 -4.0625 C 2.109375 -4.175781 2.40625 -4.234375 2.71875 -4.234375 C 2.96875 -4.234375 3.195312 -4.179688 3.40625 -4.078125 C 3.613281 -3.984375 3.78125 -3.835938 3.90625 -3.640625 C 4.03125 -3.441406 4.09375 -3.179688 4.09375 -2.859375 Z M 3.125 -2.796875 C 3.125 -3.003906 3.078125 -3.15625 2.984375 -3.25 C 2.890625 -3.34375 2.75 -3.390625 2.5625 -3.390625 C 2.320312 -3.390625 2.132812 -3.316406 2 -3.171875 C 1.863281 -3.023438 1.765625 -2.773438 1.703125 -2.421875 L 1.578125 -1.75 C 1.566406 -1.675781 1.554688 -1.609375 1.546875 -1.546875 C 1.546875 -1.484375 1.546875 -1.421875 1.546875 -1.359375 C 1.546875 -1.148438 1.59375 -1.003906 1.6875 -0.921875 C 1.78125 -0.835938 1.921875 -0.796875 2.109375 -0.796875 C 2.335938 -0.796875 2.519531 -0.867188 2.65625 -1.015625 C 2.800781 -1.171875 2.90625 -1.414062 2.96875 -1.75 L 3.09375 -2.421875 C 3.101562 -2.492188 3.109375 -2.5625 3.109375 -2.625 C 3.117188 -2.6875 3.125 -2.742188 3.125 -2.796875 Z M 3.125 -2.796875 "/></g></g></g><g fill="#ffffff" fill-opacity="1"><g transform="translate(7.198448, 8.058114)"><g><path d="M 3.46875 -2.125 C 3.46875 -2.082031 3.460938 -2.035156 3.453125 -1.984375 C 3.453125 -1.929688 3.445312 -1.878906 3.4375 -1.828125 L 3.375 -1.390625 C 3.28125 -0.867188 3.09375 -0.5 2.8125 -0.28125 C 2.53125 -0.0625 2.175781 0.046875 1.75 0.046875 C 1.664062 0.046875 1.582031 0.0390625 1.5 0.03125 C 1.414062 0.03125 1.332031 0.0234375 1.25 0.015625 L 1.078125 0.984375 C 1.066406 1.015625 1.046875 1.039062 1.015625 1.0625 C 0.992188 1.082031 0.96875 1.09375 0.9375 1.09375 L 0.265625 1.09375 C 0.191406 1.09375 0.15625 1.0625 0.15625 1 C 0.15625 1 0.15625 0.992188 0.15625 0.984375 L 0.859375 -2.953125 C 0.867188 -3.003906 0.882812 -3.039062 0.90625 -3.0625 C 0.925781 -3.082031 0.976562 -3.101562 1.0625 -3.125 C 1.226562 -3.164062 1.414062 -3.195312 1.625 -3.21875 C 1.84375 -3.25 2.0625 -3.265625 2.28125 -3.265625 C 2.664062 -3.265625 2.957031 -3.160156 3.15625 -2.953125 C 3.363281 -2.742188 3.46875 -2.46875 3.46875 -2.125 Z M 2.5625 -2.125 C 2.5625 -2.25 2.53125 -2.34375 2.46875 -2.40625 C 2.414062 -2.476562 2.3125 -2.515625 2.15625 -2.515625 C 1.96875 -2.515625 1.8125 -2.503906 1.6875 -2.484375 L 1.375 -0.734375 C 1.53125 -0.710938 1.671875 -0.703125 1.796875 -0.703125 C 1.972656 -0.703125 2.113281 -0.742188 2.21875 -0.828125 C 2.332031 -0.921875 2.410156 -1.109375 2.453125 -1.390625 L 2.53125 -1.828125 C 2.539062 -1.878906 2.546875 -1.929688 2.546875 -1.984375 C 2.554688 -2.035156 2.5625 -2.082031 2.5625 -2.125 Z M 2.5625 -2.125 "/></g></g></g><g fill="#ffffff" fill-opacity="1"><g transform="translate(10.553422, 8.058114)"><g><path d="M 3.40625 -2.09375 C 3.40625 -2.039062 3.398438 -1.988281 3.390625 -1.9375 C 3.390625 -1.894531 3.382812 -1.84375 3.375 -1.78125 L 3.328125 -1.46875 C 3.304688 -1.375 3.257812 -1.328125 3.1875 -1.328125 L 1.375 -1.328125 C 1.375 -1.285156 1.367188 -1.242188 1.359375 -1.203125 C 1.359375 -1.160156 1.359375 -1.125 1.359375 -1.09375 C 1.359375 -0.945312 1.394531 -0.84375 1.46875 -0.78125 C 1.550781 -0.726562 1.679688 -0.703125 1.859375 -0.703125 C 1.972656 -0.703125 2.097656 -0.703125 2.234375 -0.703125 C 2.378906 -0.710938 2.515625 -0.722656 2.640625 -0.734375 C 2.765625 -0.742188 2.867188 -0.75 2.953125 -0.75 C 2.992188 -0.757812 3.019531 -0.753906 3.03125 -0.734375 C 3.050781 -0.722656 3.054688 -0.695312 3.046875 -0.65625 L 2.96875 -0.234375 C 2.96875 -0.191406 2.957031 -0.15625 2.9375 -0.125 C 2.914062 -0.101562 2.878906 -0.0859375 2.828125 -0.078125 C 2.640625 -0.0351562 2.457031 -0.00390625 2.28125 0.015625 C 2.101562 0.0351562 1.894531 0.046875 1.65625 0.046875 C 1.445312 0.046875 1.253906 0.0078125 1.078125 -0.0625 C 0.898438 -0.144531 0.753906 -0.269531 0.640625 -0.4375 C 0.523438 -0.601562 0.46875 -0.816406 0.46875 -1.078125 C 0.46875 -1.128906 0.46875 -1.179688 0.46875 -1.234375 C 0.476562 -1.285156 0.488281 -1.335938 0.5 -1.390625 L 0.5625 -1.78125 C 0.65625 -2.28125 0.84375 -2.648438 1.125 -2.890625 C 1.414062 -3.140625 1.789062 -3.265625 2.25 -3.265625 C 2.5 -3.265625 2.707031 -3.210938 2.875 -3.109375 C 3.050781 -3.003906 3.179688 -2.863281 3.265625 -2.6875 C 3.359375 -2.507812 3.40625 -2.3125 3.40625 -2.09375 Z M 2.5625 -2.140625 C 2.5625 -2.265625 2.523438 -2.359375 2.453125 -2.421875 C 2.390625 -2.492188 2.28125 -2.53125 2.125 -2.53125 C 1.925781 -2.53125 1.773438 -2.472656 1.671875 -2.359375 C 1.578125 -2.242188 1.507812 -2.085938 1.46875 -1.890625 L 2.53125 -1.890625 C 2.539062 -1.929688 2.546875 -1.972656 2.546875 -2.015625 C 2.554688 -2.054688 2.5625 -2.097656 2.5625 -2.140625 Z M 2.5625 -2.140625 "/></g></g></g><g fill="#ffffff" fill-opacity="1"><g transform="translate(13.874623, 8.058114)"><g><path d="M 3.484375 -2.328125 C 3.484375 -2.222656 3.472656 -2.109375 3.453125 -1.984375 L 3.125 -0.125 C 3.125 -0.09375 3.109375 -0.0625 3.078125 -0.03125 C 3.046875 -0.0078125 3.015625 0 2.984375 0 L 2.3125 0 C 2.28125 0 2.253906 -0.0078125 2.234375 -0.03125 C 2.222656 -0.0507812 2.21875 -0.0703125 2.21875 -0.09375 C 2.21875 -0.101562 2.21875 -0.113281 2.21875 -0.125 L 2.546875 -1.984375 C 2.546875 -2.035156 2.550781 -2.082031 2.5625 -2.125 C 2.570312 -2.164062 2.578125 -2.203125 2.578125 -2.234375 C 2.578125 -2.335938 2.546875 -2.410156 2.484375 -2.453125 C 2.421875 -2.492188 2.347656 -2.515625 2.265625 -2.515625 C 2.160156 -2.515625 2.046875 -2.492188 1.921875 -2.453125 C 1.804688 -2.410156 1.71875 -2.367188 1.65625 -2.328125 L 1.265625 -0.125 C 1.265625 -0.09375 1.25 -0.0625 1.21875 -0.03125 C 1.195312 -0.0078125 1.171875 0 1.140625 0 L 0.453125 0 C 0.390625 0 0.359375 -0.03125 0.359375 -0.09375 C 0.359375 -0.101562 0.359375 -0.109375 0.359375 -0.109375 C 0.359375 -0.109375 0.359375 -0.113281 0.359375 -0.125 L 0.890625 -3.109375 C 0.898438 -3.140625 0.914062 -3.164062 0.9375 -3.1875 C 0.957031 -3.207031 0.984375 -3.21875 1.015625 -3.21875 L 1.625 -3.21875 C 1.695312 -3.21875 1.734375 -3.1875 1.734375 -3.125 C 1.734375 -3.125 1.734375 -3.117188 1.734375 -3.109375 L 1.703125 -2.96875 C 1.828125 -3.070312 1.96875 -3.144531 2.125 -3.1875 C 2.28125 -3.238281 2.429688 -3.265625 2.578125 -3.265625 C 2.742188 -3.265625 2.894531 -3.234375 3.03125 -3.171875 C 3.164062 -3.109375 3.273438 -3.007812 3.359375 -2.875 C 3.441406 -2.738281 3.484375 -2.554688 3.484375 -2.328125 Z M 3.484375 -2.328125 "/></g></g></g><g fill="#ffffff" fill-opacity="1"><g transform="translate(17.319666, 8.058114)"><g/></g></g><g fill="#ffffff" fill-opacity="1"><g transform="translate(18.726953, 8.058114)"><g><path d="M 1.078125 -3.59375 C 1.003906 -3.59375 0.972656 -3.628906 0.984375 -3.703125 L 1.078125 -4.21875 C 1.085938 -4.25 1.097656 -4.273438 1.109375 -4.296875 C 1.128906 -4.328125 1.164062 -4.34375 1.21875 -4.34375 L 1.953125 -4.34375 C 2.023438 -4.34375 2.050781 -4.300781 2.03125 -4.21875 L 1.953125 -3.703125 C 1.941406 -3.671875 1.925781 -3.644531 1.90625 -3.625 C 1.882812 -3.601562 1.851562 -3.59375 1.8125 -3.59375 Z M 1.734375 -3.21875 C 1.804688 -3.21875 1.835938 -3.179688 1.828125 -3.109375 L 1.296875 -0.109375 C 1.285156 -0.078125 1.269531 -0.0507812 1.25 -0.03125 C 1.238281 -0.0078125 1.207031 0 1.15625 0 L 0.46875 0 C 0.394531 0 0.363281 -0.0351562 0.375 -0.109375 L 0.90625 -3.109375 C 0.914062 -3.140625 0.929688 -3.164062 0.953125 -3.1875 C 0.984375 -3.207031 1.015625 -3.21875 1.046875 -3.21875 Z M 1.734375 -3.21875 "/></g></g></g><g fill="#ffffff" fill-opacity="1"><g transform="translate(20.359408, 8.058114)"><g><path d="M 3.484375 -2.328125 C 3.484375 -2.222656 3.472656 -2.109375 3.453125 -1.984375 L 3.125 -0.125 C 3.125 -0.09375 3.109375 -0.0625 3.078125 -0.03125 C 3.046875 -0.0078125 3.015625 0 2.984375 0 L 2.3125 0 C 2.28125 0 2.253906 -0.0078125 2.234375 -0.03125 C 2.222656 -0.0507812 2.21875 -0.0703125 2.21875 -0.09375 C 2.21875 -0.101562 2.21875 -0.113281 2.21875 -0.125 L 2.546875 -1.984375 C 2.546875 -2.035156 2.550781 -2.082031 2.5625 -2.125 C 2.570312 -2.164062 2.578125 -2.203125 2.578125 -2.234375 C 2.578125 -2.335938 2.546875 -2.410156 2.484375 -2.453125 C 2.421875 -2.492188 2.347656 -2.515625 2.265625 -2.515625 C 2.160156 -2.515625 2.046875 -2.492188 1.921875 -2.453125 C 1.804688 -2.410156 1.71875 -2.367188 1.65625 -2.328125 L 1.265625 -0.125 C 1.265625 -0.09375 1.25 -0.0625 1.21875 -0.03125 C 1.195312 -0.0078125 1.171875 0 1.140625 0 L 0.453125 0 C 0.390625 0 0.359375 -0.03125 0.359375 -0.09375 C 0.359375 -0.101562 0.359375 -0.109375 0.359375 -0.109375 C 0.359375 -0.109375 0.359375 -0.113281 0.359375 -0.125 L 0.890625 -3.109375 C 0.898438 -3.140625 0.914062 -3.164062 0.9375 -3.1875 C 0.957031 -3.207031 0.984375 -3.21875 1.015625 -3.21875 L 1.625 -3.21875 C 1.695312 -3.21875 1.734375 -3.1875 1.734375 -3.125 C 1.734375 -3.125 1.734375 -3.117188 1.734375 -3.109375 L 1.703125 -2.96875 C 1.828125 -3.070312 1.96875 -3.144531 2.125 -3.1875 C 2.28125 -3.238281 2.429688 -3.265625 2.578125 -3.265625 C 2.742188 -3.265625 2.894531 -3.234375 3.03125 -3.171875 C 3.164062 -3.109375 3.273438 -3.007812 3.359375 -2.875 C 3.441406 -2.738281 3.484375 -2.554688 3.484375 -2.328125 Z M 3.484375 -2.328125 "/></g></g></g></svg>
