<svg xmlns="http://www.w3.org/2000/svg" xmlns:xlink="http://www.w3.org/1999/xlink" width="223" zoomAndPan="magnify" viewBox="0 0 167.25 42.75" height="57" preserveAspectRatio="xMidYMid meet" version="1.0"><defs><g/><clipPath id="af0fd05449"><path d="M 0.113281 0 L 166.324219 0 L 166.324219 41.796875 L 0.113281 41.796875 Z M 0.113281 0 " clip-rule="nonzero"/></clipPath><clipPath id="3da4375dfc"><path d="M 143.710938 0 C 156.148438 0 166.234375 9.355469 166.234375 20.898438 C 166.234375 32.441406 156.148438 41.796875 143.710938 41.796875 L 22.636719 41.796875 C 10.199219 41.796875 0.113281 32.441406 0.113281 20.898438 C 0.113281 9.355469 10.199219 0 22.636719 0 Z M 143.710938 0 " clip-rule="nonzero"/></clipPath><clipPath id="90d2e62410"><path d="M 0.125 0 L 166.390625 0 L 166.390625 41.753906 L 0.125 41.753906 Z M 0.125 0 " clip-rule="nonzero"/></clipPath><clipPath id="b0692dca86"><path d="M 143.695312 0 C 156.132812 0 166.214844 9.355469 166.214844 20.894531 C 166.214844 32.4375 156.132812 41.789062 143.695312 41.789062 L 22.644531 41.789062 C 10.207031 41.789062 0.125 32.4375 0.125 20.894531 C 0.125 9.355469 10.207031 0 22.644531 0 Z M 143.695312 0 " clip-rule="nonzero"/></clipPath><clipPath id="4f61090602"><path d="M 89.566406 9 L 109 9 L 109 33.746094 L 89.566406 33.746094 Z M 89.566406 9 " clip-rule="nonzero"/></clipPath><clipPath id="602108ec84"><path d="M 135 8.394531 L 147.726562 8.394531 L 147.726562 31 L 135 31 Z M 135 8.394531 " clip-rule="nonzero"/></clipPath></defs><g clip-path="url(#af0fd05449)"><g clip-path="url(#3da4375dfc)"><path fill="#4d4d4d" d="M 0.113281 0 L 166.164062 0 L 166.164062 41.796875 L 0.113281 41.796875 Z M 0.113281 0 " fill-opacity="1" fill-rule="nonzero"/></g></g><g clip-path="url(#90d2e62410)"><g clip-path="url(#b0692dca86)"><path stroke-linecap="butt" transform="matrix(0.74564, 0, 0, 0.74564, 0.125079, 0.00000198837)" fill="none" stroke-linejoin="miter" d="M 192.546428 -0.00000266667 C 209.22674 -0.00000266667 222.74806 12.546902 222.74806 28.022292 C 222.74806 43.50292 209.22674 56.044586 192.546428 56.044586 L 30.201526 56.044586 C 13.521215 56.044586 -0.000105714 43.50292 -0.000105714 28.022292 C -0.000105714 12.546902 13.521215 -0.00000266667 30.201526 -0.00000266667 Z M 192.546428 -0.00000266667 " stroke="#d9d9d9" stroke-width="4" stroke-opacity="1" stroke-miterlimit="4"/></g></g><path fill="#ffffff" d="M 116.992188 30.398438 C 111.644531 30.398438 109.027344 27.324219 109.027344 23.453125 C 109.027344 19.585938 112.667969 14.691406 118.019531 14.691406 C 123.367188 14.691406 125.984375 17.765625 125.984375 21.632812 C 125.984375 25.503906 122.34375 30.398438 116.992188 30.398438 Z M 117.222656 25.503906 C 119.042969 25.503906 120.292969 23.796875 120.292969 21.976562 C 120.292969 20.15625 119.382812 19.699219 117.789062 19.699219 C 116.195312 19.699219 114.71875 21.40625 114.71875 23.226562 C 114.71875 25.046875 115.628906 25.503906 117.222656 25.503906 Z M 131.675781 30.054688 L 126.097656 30.054688 L 130.652344 9.34375 L 136.226562 9.34375 L 131.675781 29.941406 Z M 131.675781 30.054688 " fill-opacity="1" fill-rule="nonzero"/><g clip-path="url(#4f61090602)"><path fill="#ffffff" d="M 100.492188 30.398438 C 98.785156 30.398438 97.078125 29.828125 96.164062 28.460938 L 95.824219 30.054688 L 89.566406 33.355469 L 90.246094 30.054688 L 94.800781 9.34375 L 100.378906 9.34375 L 98.785156 16.625 C 100.035156 15.261719 101.289062 14.691406 102.878906 14.691406 C 106.296875 14.691406 108.457031 16.855469 108.457031 20.949219 C 108.457031 25.046875 105.839844 30.398438 100.492188 30.398438 Z M 102.652344 22.089844 C 102.652344 24.023438 101.289062 25.503906 99.464844 25.503906 C 97.644531 25.503906 97.53125 25.160156 96.960938 24.480469 L 97.875 20.722656 C 98.554688 20.039062 99.238281 19.699219 100.148438 19.699219 C 101.515625 19.699219 102.652344 20.722656 102.652344 22.203125 Z M 102.652344 22.089844 " fill-opacity="1" fill-rule="evenodd"/></g><g clip-path="url(#602108ec84)"><path fill="#ffffff" d="M 142.03125 30.398438 C 138.84375 30.398438 136.453125 29.257812 136.453125 26.640625 C 136.453125 24.023438 136.453125 25.84375 136.570312 25.503906 L 137.820312 19.925781 L 135.316406 19.925781 L 136.453125 15.148438 L 138.957031 15.148438 L 139.871094 11.050781 L 146.128906 8.433594 L 145.445312 11.050781 L 144.535156 15.148438 L 147.609375 15.148438 L 146.46875 19.925781 L 143.398438 19.925781 L 142.601562 23.570312 L 142.601562 24.25 C 142.601562 24.933594 143.054688 25.503906 143.964844 25.503906 C 144.875 25.503906 144.648438 25.503906 144.761719 25.390625 L 144.761719 29.828125 C 144.195312 30.285156 143.167969 30.398438 142.144531 30.398438 Z M 142.03125 30.398438 " fill-opacity="1" fill-rule="nonzero"/></g><g fill="#ffffff" fill-opacity="1"><g transform="translate(13.785331, 27.465917)"><g><path d="M 13.65625 -9.546875 C 13.65625 -9.316406 13.644531 -9.078125 13.625 -8.828125 C 13.601562 -8.585938 13.566406 -8.335938 13.515625 -8.078125 L 13.125 -5.84375 C 12.875 -4.382812 12.453125 -3.210938 11.859375 -2.328125 C 11.265625 -1.453125 10.515625 -0.816406 9.609375 -0.421875 C 8.710938 -0.0234375 7.675781 0.171875 6.5 0.171875 C 5.65625 0.171875 4.878906 0.00390625 4.171875 -0.328125 C 3.472656 -0.671875 2.914062 -1.179688 2.5 -1.859375 C 2.09375 -2.546875 1.890625 -3.398438 1.890625 -4.421875 C 1.890625 -4.648438 1.898438 -4.878906 1.921875 -5.109375 C 1.941406 -5.347656 1.976562 -5.59375 2.03125 -5.84375 L 2.421875 -8.078125 C 2.691406 -9.628906 3.148438 -10.84375 3.796875 -11.71875 C 4.441406 -12.59375 5.21875 -13.207031 6.125 -13.5625 C 7.03125 -13.914062 8 -14.09375 9.03125 -14.09375 C 9.875 -14.09375 10.644531 -13.929688 11.34375 -13.609375 C 12.039062 -13.296875 12.597656 -12.804688 13.015625 -12.140625 C 13.441406 -11.472656 13.65625 -10.609375 13.65625 -9.546875 Z M 10.421875 -9.3125 C 10.421875 -10.019531 10.257812 -10.523438 9.9375 -10.828125 C 9.625 -11.128906 9.15625 -11.28125 8.53125 -11.28125 C 7.738281 -11.28125 7.113281 -11.039062 6.65625 -10.5625 C 6.207031 -10.082031 5.875 -9.253906 5.65625 -8.078125 L 5.265625 -5.84375 C 5.210938 -5.59375 5.175781 -5.359375 5.15625 -5.140625 C 5.144531 -4.921875 5.140625 -4.71875 5.140625 -4.53125 C 5.140625 -3.832031 5.296875 -3.34375 5.609375 -3.0625 C 5.929688 -2.78125 6.398438 -2.640625 7.015625 -2.640625 C 7.796875 -2.640625 8.421875 -2.890625 8.890625 -3.390625 C 9.359375 -3.898438 9.695312 -4.71875 9.90625 -5.84375 L 10.296875 -8.078125 C 10.328125 -8.316406 10.351562 -8.539062 10.375 -8.75 C 10.40625 -8.957031 10.421875 -9.144531 10.421875 -9.3125 Z M 10.421875 -9.3125 "/></g></g></g><g fill="#ffffff" fill-opacity="1"><g transform="translate(26.876348, 27.465917)"><g><path d="M 11.5625 -7.109375 C 11.5625 -6.941406 11.550781 -6.773438 11.53125 -6.609375 C 11.519531 -6.441406 11.5 -6.269531 11.46875 -6.09375 L 11.234375 -4.625 C 10.941406 -2.894531 10.320312 -1.660156 9.375 -0.921875 C 8.4375 -0.191406 7.253906 0.171875 5.828125 0.171875 C 5.566406 0.171875 5.296875 0.15625 5.015625 0.125 C 4.734375 0.101562 4.445312 0.0703125 4.15625 0.03125 L 3.578125 3.28125 C 3.566406 3.382812 3.515625 3.472656 3.421875 3.546875 C 3.335938 3.617188 3.25 3.65625 3.15625 3.65625 L 0.875 3.65625 C 0.65625 3.65625 0.546875 3.550781 0.546875 3.34375 C 0.546875 3.320312 0.546875 3.304688 0.546875 3.296875 C 0.546875 3.296875 0.546875 3.289062 0.546875 3.28125 L 2.875 -9.859375 C 2.894531 -10.015625 2.945312 -10.128906 3.03125 -10.203125 C 3.113281 -10.285156 3.285156 -10.351562 3.546875 -10.40625 C 4.109375 -10.539062 4.742188 -10.65625 5.453125 -10.75 C 6.171875 -10.84375 6.890625 -10.890625 7.609375 -10.890625 C 8.867188 -10.890625 9.84375 -10.539062 10.53125 -9.84375 C 11.21875 -9.15625 11.5625 -8.242188 11.5625 -7.109375 Z M 8.53125 -7.0625 C 8.53125 -7.5 8.429688 -7.828125 8.234375 -8.046875 C 8.046875 -8.265625 7.695312 -8.375 7.1875 -8.375 C 6.5625 -8.375 6.039062 -8.34375 5.625 -8.28125 L 4.59375 -2.4375 C 5.113281 -2.363281 5.582031 -2.328125 6 -2.328125 C 6.582031 -2.328125 7.050781 -2.476562 7.40625 -2.78125 C 7.769531 -3.09375 8.03125 -3.707031 8.1875 -4.625 L 8.4375 -6.09375 C 8.457031 -6.28125 8.476562 -6.453125 8.5 -6.609375 C 8.519531 -6.773438 8.53125 -6.925781 8.53125 -7.0625 Z M 8.53125 -7.0625 "/></g></g></g><g fill="#ffffff" fill-opacity="1"><g transform="translate(38.054364, 27.465917)"><g><path d="M 11.359375 -6.96875 C 11.359375 -6.8125 11.347656 -6.644531 11.328125 -6.46875 C 11.316406 -6.300781 11.296875 -6.132812 11.265625 -5.96875 L 11.078125 -4.875 C 11.015625 -4.570312 10.859375 -4.421875 10.609375 -4.421875 L 4.59375 -4.421875 C 4.582031 -4.285156 4.566406 -4.148438 4.546875 -4.015625 C 4.523438 -3.890625 4.515625 -3.769531 4.515625 -3.65625 C 4.515625 -3.164062 4.640625 -2.820312 4.890625 -2.625 C 5.148438 -2.4375 5.582031 -2.34375 6.1875 -2.34375 C 6.582031 -2.34375 7.007812 -2.351562 7.46875 -2.375 C 7.9375 -2.394531 8.382812 -2.421875 8.8125 -2.453125 C 9.238281 -2.484375 9.578125 -2.503906 9.828125 -2.515625 C 9.972656 -2.523438 10.070312 -2.507812 10.125 -2.46875 C 10.1875 -2.4375 10.207031 -2.351562 10.1875 -2.21875 L 9.921875 -0.78125 C 9.890625 -0.632812 9.847656 -0.523438 9.796875 -0.453125 C 9.742188 -0.378906 9.628906 -0.320312 9.453125 -0.28125 C 8.828125 -0.132812 8.21875 -0.0234375 7.625 0.046875 C 7.03125 0.128906 6.328125 0.171875 5.515625 0.171875 C 4.835938 0.171875 4.195312 0.0351562 3.59375 -0.234375 C 3 -0.503906 2.515625 -0.910156 2.140625 -1.453125 C 1.765625 -2.003906 1.578125 -2.71875 1.578125 -3.59375 C 1.578125 -3.757812 1.582031 -3.929688 1.59375 -4.109375 C 1.613281 -4.285156 1.640625 -4.46875 1.671875 -4.65625 L 1.890625 -5.96875 C 2.179688 -7.601562 2.800781 -8.832031 3.75 -9.65625 C 4.707031 -10.476562 5.957031 -10.890625 7.5 -10.890625 C 8.351562 -10.890625 9.0625 -10.710938 9.625 -10.359375 C 10.195312 -10.015625 10.628906 -9.546875 10.921875 -8.953125 C 11.210938 -8.367188 11.359375 -7.707031 11.359375 -6.96875 Z M 8.53125 -7.125 C 8.53125 -7.5625 8.414062 -7.890625 8.1875 -8.109375 C 7.96875 -8.335938 7.59375 -8.453125 7.0625 -8.453125 C 6.425781 -8.453125 5.941406 -8.253906 5.609375 -7.859375 C 5.285156 -7.472656 5.050781 -6.953125 4.90625 -6.296875 L 8.4375 -6.296875 C 8.457031 -6.453125 8.476562 -6.597656 8.5 -6.734375 C 8.519531 -6.867188 8.53125 -7 8.53125 -7.125 Z M 8.53125 -7.125 "/></g></g></g><g fill="#ffffff" fill-opacity="1"><g transform="translate(49.119841, 27.465917)"><g><path d="M 11.625 -7.78125 C 11.625 -7.425781 11.585938 -7.046875 11.515625 -6.640625 L 10.421875 -0.390625 C 10.410156 -0.296875 10.351562 -0.207031 10.25 -0.125 C 10.15625 -0.0390625 10.054688 0 9.953125 0 L 7.6875 0 C 7.601562 0 7.53125 -0.03125 7.46875 -0.09375 C 7.414062 -0.15625 7.390625 -0.226562 7.390625 -0.3125 C 7.390625 -0.332031 7.390625 -0.347656 7.390625 -0.359375 C 7.390625 -0.367188 7.390625 -0.378906 7.390625 -0.390625 L 8.46875 -6.640625 C 8.5 -6.796875 8.519531 -6.941406 8.53125 -7.078125 C 8.550781 -7.222656 8.5625 -7.351562 8.5625 -7.46875 C 8.5625 -7.8125 8.460938 -8.046875 8.265625 -8.171875 C 8.078125 -8.304688 7.84375 -8.375 7.5625 -8.375 C 7.207031 -8.375 6.832031 -8.304688 6.4375 -8.171875 C 6.039062 -8.035156 5.738281 -7.90625 5.53125 -7.78125 L 4.234375 -0.390625 C 4.222656 -0.296875 4.171875 -0.207031 4.078125 -0.125 C 3.984375 -0.0390625 3.882812 0 3.78125 0 L 1.515625 0 C 1.304688 0 1.203125 -0.113281 1.203125 -0.34375 C 1.203125 -0.351562 1.203125 -0.359375 1.203125 -0.359375 C 1.203125 -0.367188 1.203125 -0.378906 1.203125 -0.390625 L 2.96875 -10.375 C 2.988281 -10.46875 3.039062 -10.550781 3.125 -10.625 C 3.207031 -10.707031 3.296875 -10.75 3.390625 -10.75 L 5.4375 -10.75 C 5.644531 -10.75 5.75 -10.640625 5.75 -10.421875 C 5.75 -10.410156 5.75 -10.398438 5.75 -10.390625 C 5.75 -10.390625 5.75 -10.382812 5.75 -10.375 L 5.6875 -9.921875 C 6.101562 -10.242188 6.566406 -10.484375 7.078125 -10.640625 C 7.597656 -10.804688 8.109375 -10.890625 8.609375 -10.890625 C 9.140625 -10.890625 9.632812 -10.78125 10.09375 -10.5625 C 10.550781 -10.351562 10.921875 -10.019531 11.203125 -9.5625 C 11.484375 -9.113281 11.625 -8.519531 11.625 -7.78125 Z M 11.625 -7.78125 "/></g></g></g><g fill="#ffffff" fill-opacity="1"><g transform="translate(60.597937, 27.465917)"><g/></g></g><g fill="#ffffff" fill-opacity="1"><g transform="translate(65.286691, 27.465917)"><g><path d="M 3.59375 -11.96875 C 3.363281 -11.96875 3.265625 -12.09375 3.296875 -12.34375 L 3.59375 -14.078125 C 3.625 -14.179688 3.671875 -14.269531 3.734375 -14.34375 C 3.796875 -14.414062 3.898438 -14.453125 4.046875 -14.453125 L 6.484375 -14.453125 C 6.734375 -14.453125 6.832031 -14.328125 6.78125 -14.078125 L 6.484375 -12.34375 C 6.472656 -12.238281 6.429688 -12.148438 6.359375 -12.078125 C 6.296875 -12.003906 6.1875 -11.96875 6.03125 -11.96875 Z M 5.75 -10.75 C 6 -10.75 6.109375 -10.625 6.078125 -10.375 L 4.3125 -0.375 C 4.300781 -0.269531 4.265625 -0.179688 4.203125 -0.109375 C 4.140625 -0.0351562 4.023438 0 3.859375 0 L 1.578125 0 C 1.335938 0 1.238281 -0.125 1.28125 -0.375 L 3.03125 -10.375 C 3.0625 -10.46875 3.113281 -10.550781 3.1875 -10.625 C 3.269531 -10.707031 3.363281 -10.75 3.46875 -10.75 Z M 5.75 -10.75 "/></g></g></g><g fill="#ffffff" fill-opacity="1"><g transform="translate(70.725659, 27.465917)"><g><path d="M 11.625 -7.78125 C 11.625 -7.425781 11.585938 -7.046875 11.515625 -6.640625 L 10.421875 -0.390625 C 10.410156 -0.296875 10.351562 -0.207031 10.25 -0.125 C 10.15625 -0.0390625 10.054688 0 9.953125 0 L 7.6875 0 C 7.601562 0 7.53125 -0.03125 7.46875 -0.09375 C 7.414062 -0.15625 7.390625 -0.226562 7.390625 -0.3125 C 7.390625 -0.332031 7.390625 -0.347656 7.390625 -0.359375 C 7.390625 -0.367188 7.390625 -0.378906 7.390625 -0.390625 L 8.46875 -6.640625 C 8.5 -6.796875 8.519531 -6.941406 8.53125 -7.078125 C 8.550781 -7.222656 8.5625 -7.351562 8.5625 -7.46875 C 8.5625 -7.8125 8.460938 -8.046875 8.265625 -8.171875 C 8.078125 -8.304688 7.84375 -8.375 7.5625 -8.375 C 7.207031 -8.375 6.832031 -8.304688 6.4375 -8.171875 C 6.039062 -8.035156 5.738281 -7.90625 5.53125 -7.78125 L 4.234375 -0.390625 C 4.222656 -0.296875 4.171875 -0.207031 4.078125 -0.125 C 3.984375 -0.0390625 3.882812 0 3.78125 0 L 1.515625 0 C 1.304688 0 1.203125 -0.113281 1.203125 -0.34375 C 1.203125 -0.351562 1.203125 -0.359375 1.203125 -0.359375 C 1.203125 -0.367188 1.203125 -0.378906 1.203125 -0.390625 L 2.96875 -10.375 C 2.988281 -10.46875 3.039062 -10.550781 3.125 -10.625 C 3.207031 -10.707031 3.296875 -10.75 3.390625 -10.75 L 5.4375 -10.75 C 5.644531 -10.75 5.75 -10.640625 5.75 -10.421875 C 5.75 -10.410156 5.75 -10.398438 5.75 -10.390625 C 5.75 -10.390625 5.75 -10.382812 5.75 -10.375 L 5.6875 -9.921875 C 6.101562 -10.242188 6.566406 -10.484375 7.078125 -10.640625 C 7.597656 -10.804688 8.109375 -10.890625 8.609375 -10.890625 C 9.140625 -10.890625 9.632812 -10.78125 10.09375 -10.5625 C 10.550781 -10.351562 10.921875 -10.019531 11.203125 -9.5625 C 11.484375 -9.113281 11.625 -8.519531 11.625 -7.78125 Z M 11.625 -7.78125 "/></g></g></g></svg>
