<svg xmlns="http://www.w3.org/2000/svg" xmlns:xlink="http://www.w3.org/1999/xlink" width="37" zoomAndPan="magnify" viewBox="0 0 27.75 8.25" height="11" preserveAspectRatio="xMidYMid meet" version="1.0"><defs><g/><clipPath id="0b45ac5e0e"><path d="M 1.632812 0 L 26.390625 0 L 26.390625 7.269531 L 1.632812 7.269531 Z M 1.632812 0 " clip-rule="nonzero"/></clipPath><clipPath id="912c35c5d6"><path d="M 23.007812 0 C 24.859375 0 26.363281 1.628906 26.363281 3.632812 C 26.363281 5.640625 24.859375 7.269531 23.007812 7.269531 L 4.984375 7.269531 C 3.132812 7.269531 1.632812 5.640625 1.632812 3.632812 C 1.632812 1.628906 3.132812 0 4.984375 0 Z M 23.007812 0 " clip-rule="nonzero"/></clipPath><clipPath id="e5efbf800a"><path d="M 1.632812 0 L 26.324219 0 L 26.324219 7.101562 L 1.632812 7.101562 Z M 1.632812 0 " clip-rule="nonzero"/></clipPath><clipPath id="c882973f7d"><path d="M 23.007812 0 C 24.859375 0 26.359375 1.625 26.359375 3.632812 C 26.359375 5.640625 24.859375 7.265625 23.007812 7.265625 L 4.984375 7.265625 C 3.132812 7.265625 1.632812 5.640625 1.632812 3.632812 C 1.632812 1.625 3.132812 0 4.984375 0 Z M 23.007812 0 " clip-rule="nonzero"/></clipPath><clipPath id="5433e9fba9"><path d="M 17 1.703125 L 22 1.703125 L 22 5.421875 L 17 5.421875 Z M 17 1.703125 " clip-rule="nonzero"/></clipPath><clipPath id="cc70db16fe"><path d="M 14.671875 1.703125 L 18 1.703125 L 18 5.421875 L 14.671875 5.421875 Z M 14.671875 1.703125 " clip-rule="nonzero"/></clipPath><clipPath id="e434933ebe"><path d="M 21 1.703125 L 23.804688 1.703125 L 23.804688 5.421875 L 21 5.421875 Z M 21 1.703125 " clip-rule="nonzero"/></clipPath></defs><g clip-path="url(#0b45ac5e0e)"><g clip-path="url(#912c35c5d6)"><path fill="#4d4d4d" d="M 1.632812 0 L 26.359375 0 L 26.359375 7.269531 L 1.632812 7.269531 Z M 1.632812 0 " fill-opacity="1" fill-rule="nonzero"/></g></g><g clip-path="url(#e5efbf800a)"><g clip-path="url(#c882973f7d)"><path stroke-linecap="butt" transform="matrix(0.338236, 0, 0, 0.338236, 1.633471, 0.0000000916667)" fill="none" stroke-linejoin="miter" d="M 63.193663 -0.000000271014 C 68.667844 -0.000000271014 73.102624 4.804344 73.102624 10.740482 C 73.102624 16.676619 68.667844 21.480963 63.193663 21.480963 L 9.907015 21.480963 C 4.432833 21.480963 -0.00194615 16.676619 -0.00194615 10.740482 C -0.00194615 4.804344 4.432833 -0.000000271014 9.907015 -0.000000271014 Z M 63.193663 -0.000000271014 " stroke="#ffffff" stroke-width="4.065214" stroke-opacity="1" stroke-miterlimit="4"/></g></g><g clip-path="url(#5433e9fba9)"><path fill="#ffffff" d="M 18.910156 5.097656 C 18.082031 5.097656 17.679688 4.625 17.679688 4.027344 C 17.679688 3.429688 18.242188 2.675781 19.066406 2.675781 C 19.894531 2.675781 20.296875 3.148438 20.296875 3.746094 C 20.296875 4.34375 19.734375 5.097656 18.910156 5.097656 Z M 18.945312 4.34375 C 19.226562 4.34375 19.417969 4.082031 19.417969 3.800781 C 19.417969 3.519531 19.277344 3.449219 19.03125 3.449219 C 18.785156 3.449219 18.558594 3.710938 18.558594 3.992188 C 18.558594 4.273438 18.699219 4.34375 18.945312 4.34375 Z M 21.175781 5.046875 L 20.316406 5.046875 L 21.019531 1.847656 L 21.878906 1.847656 L 21.175781 5.027344 Z M 21.175781 5.046875 " fill-opacity="1" fill-rule="nonzero"/></g><g clip-path="url(#cc70db16fe)"><path fill="#ffffff" d="M 16.359375 5.097656 C 16.097656 5.097656 15.832031 5.011719 15.691406 4.800781 L 15.640625 5.046875 L 14.671875 5.554688 L 14.777344 5.046875 L 15.480469 1.847656 L 16.34375 1.847656 L 16.097656 2.972656 C 16.289062 2.761719 16.484375 2.675781 16.730469 2.675781 C 17.257812 2.675781 17.589844 3.007812 17.589844 3.640625 C 17.589844 4.273438 17.1875 5.097656 16.359375 5.097656 Z M 16.695312 3.816406 C 16.695312 4.117188 16.484375 4.34375 16.203125 4.34375 C 15.921875 4.34375 15.902344 4.289062 15.816406 4.1875 L 15.957031 3.605469 C 16.0625 3.5 16.167969 3.449219 16.308594 3.449219 C 16.519531 3.449219 16.695312 3.605469 16.695312 3.835938 Z M 16.695312 3.816406 " fill-opacity="1" fill-rule="evenodd"/></g><g clip-path="url(#e434933ebe)"><path fill="#ffffff" d="M 22.777344 5.097656 C 22.285156 5.097656 21.914062 4.921875 21.914062 4.519531 C 21.914062 4.117188 21.914062 4.394531 21.933594 4.34375 L 22.125 3.484375 L 21.738281 3.484375 L 21.914062 2.746094 L 22.300781 2.746094 L 22.441406 2.113281 L 23.410156 1.707031 L 23.304688 2.113281 L 23.164062 2.746094 L 23.636719 2.746094 L 23.460938 3.484375 L 22.988281 3.484375 L 22.863281 4.046875 L 22.863281 4.152344 C 22.863281 4.257812 22.933594 4.34375 23.074219 4.34375 C 23.214844 4.34375 23.179688 4.34375 23.199219 4.324219 L 23.199219 5.011719 C 23.109375 5.082031 22.953125 5.097656 22.792969 5.097656 Z M 22.777344 5.097656 " fill-opacity="1" fill-rule="nonzero"/></g><g fill="#ffffff" fill-opacity="1"><g transform="translate(3.294653, 4.628958)"><g><path d="M 2.15625 -1.5 C 2.15625 -1.46875 2.148438 -1.429688 2.140625 -1.390625 C 2.140625 -1.347656 2.132812 -1.304688 2.125 -1.265625 L 2.0625 -0.921875 C 2.03125 -0.691406 1.96875 -0.503906 1.875 -0.359375 C 1.78125 -0.222656 1.660156 -0.125 1.515625 -0.0625 C 1.367188 0 1.207031 0.03125 1.03125 0.03125 C 0.894531 0.03125 0.769531 0.00390625 0.65625 -0.046875 C 0.550781 -0.109375 0.460938 -0.191406 0.390625 -0.296875 C 0.328125 -0.398438 0.296875 -0.535156 0.296875 -0.703125 C 0.296875 -0.734375 0.296875 -0.765625 0.296875 -0.796875 C 0.304688 -0.835938 0.3125 -0.878906 0.3125 -0.921875 L 0.375 -1.265625 C 0.425781 -1.515625 0.5 -1.707031 0.59375 -1.84375 C 0.695312 -1.976562 0.816406 -2.070312 0.953125 -2.125 C 1.097656 -2.1875 1.253906 -2.21875 1.421875 -2.21875 C 1.554688 -2.21875 1.675781 -2.191406 1.78125 -2.140625 C 1.894531 -2.085938 1.984375 -2.007812 2.046875 -1.90625 C 2.117188 -1.800781 2.15625 -1.664062 2.15625 -1.5 Z M 1.640625 -1.46875 C 1.640625 -1.582031 1.613281 -1.660156 1.5625 -1.703125 C 1.507812 -1.753906 1.4375 -1.78125 1.34375 -1.78125 C 1.21875 -1.78125 1.117188 -1.738281 1.046875 -1.65625 C 0.972656 -1.582031 0.921875 -1.453125 0.890625 -1.265625 L 0.828125 -0.921875 C 0.816406 -0.878906 0.8125 -0.84375 0.8125 -0.8125 C 0.8125 -0.78125 0.8125 -0.75 0.8125 -0.71875 C 0.8125 -0.601562 0.832031 -0.523438 0.875 -0.484375 C 0.925781 -0.441406 1.003906 -0.421875 1.109375 -0.421875 C 1.234375 -0.421875 1.332031 -0.457031 1.40625 -0.53125 C 1.476562 -0.613281 1.53125 -0.742188 1.5625 -0.921875 L 1.625 -1.265625 C 1.625 -1.304688 1.625 -1.34375 1.625 -1.375 C 1.632812 -1.40625 1.640625 -1.4375 1.640625 -1.46875 Z M 1.640625 -1.46875 "/></g></g></g><g fill="#ffffff" fill-opacity="1"><g transform="translate(5.358651, 4.628958)"><g><path d="M 1.828125 -1.125 C 1.828125 -1.09375 1.820312 -1.0625 1.8125 -1.03125 C 1.8125 -1.007812 1.8125 -0.984375 1.8125 -0.953125 L 1.765625 -0.734375 C 1.722656 -0.453125 1.625 -0.253906 1.46875 -0.140625 C 1.320312 -0.0234375 1.140625 0.03125 0.921875 0.03125 C 0.878906 0.03125 0.832031 0.0234375 0.78125 0.015625 C 0.738281 0.015625 0.695312 0.0078125 0.65625 0 L 0.5625 0.515625 C 0.5625 0.535156 0.550781 0.550781 0.53125 0.5625 C 0.519531 0.570312 0.507812 0.578125 0.5 0.578125 L 0.140625 0.578125 C 0.0976562 0.578125 0.078125 0.5625 0.078125 0.53125 C 0.078125 0.519531 0.078125 0.515625 0.078125 0.515625 L 0.453125 -1.546875 C 0.453125 -1.578125 0.457031 -1.597656 0.46875 -1.609375 C 0.488281 -1.617188 0.519531 -1.628906 0.5625 -1.640625 C 0.644531 -1.660156 0.742188 -1.675781 0.859375 -1.6875 C 0.972656 -1.707031 1.085938 -1.71875 1.203125 -1.71875 C 1.398438 -1.71875 1.550781 -1.660156 1.65625 -1.546875 C 1.769531 -1.441406 1.828125 -1.300781 1.828125 -1.125 Z M 1.34375 -1.109375 C 1.34375 -1.179688 1.328125 -1.234375 1.296875 -1.265625 C 1.265625 -1.296875 1.207031 -1.3125 1.125 -1.3125 C 1.03125 -1.3125 0.953125 -1.3125 0.890625 -1.3125 L 0.71875 -0.390625 C 0.800781 -0.367188 0.875 -0.359375 0.9375 -0.359375 C 1.03125 -0.359375 1.101562 -0.382812 1.15625 -0.4375 C 1.21875 -0.488281 1.265625 -0.585938 1.296875 -0.734375 L 1.328125 -0.953125 C 1.328125 -0.984375 1.328125 -1.007812 1.328125 -1.03125 C 1.335938 -1.0625 1.34375 -1.085938 1.34375 -1.109375 Z M 1.34375 -1.109375 "/></g></g></g><g fill="#ffffff" fill-opacity="1"><g transform="translate(7.121035, 4.628958)"><g><path d="M 1.796875 -1.09375 C 1.796875 -1.070312 1.789062 -1.046875 1.78125 -1.015625 C 1.78125 -0.992188 1.78125 -0.96875 1.78125 -0.9375 L 1.75 -0.765625 C 1.738281 -0.722656 1.710938 -0.703125 1.671875 -0.703125 L 0.71875 -0.703125 C 0.71875 -0.679688 0.71875 -0.660156 0.71875 -0.640625 C 0.71875 -0.617188 0.71875 -0.597656 0.71875 -0.578125 C 0.71875 -0.492188 0.734375 -0.4375 0.765625 -0.40625 C 0.804688 -0.382812 0.875 -0.375 0.96875 -0.375 C 1.03125 -0.375 1.097656 -0.375 1.171875 -0.375 C 1.242188 -0.375 1.3125 -0.375 1.375 -0.375 C 1.445312 -0.382812 1.503906 -0.390625 1.546875 -0.390625 C 1.566406 -0.398438 1.582031 -0.398438 1.59375 -0.390625 C 1.601562 -0.378906 1.609375 -0.363281 1.609375 -0.34375 L 1.5625 -0.125 C 1.5625 -0.101562 1.554688 -0.0820312 1.546875 -0.0625 C 1.535156 -0.0507812 1.515625 -0.046875 1.484375 -0.046875 C 1.390625 -0.0234375 1.296875 -0.0078125 1.203125 0 C 1.109375 0.0195312 1 0.03125 0.875 0.03125 C 0.757812 0.03125 0.65625 0.0078125 0.5625 -0.03125 C 0.46875 -0.0703125 0.390625 -0.132812 0.328125 -0.21875 C 0.273438 -0.3125 0.25 -0.425781 0.25 -0.5625 C 0.25 -0.59375 0.25 -0.617188 0.25 -0.640625 C 0.25 -0.671875 0.253906 -0.703125 0.265625 -0.734375 L 0.296875 -0.9375 C 0.335938 -1.195312 0.429688 -1.390625 0.578125 -1.515625 C 0.734375 -1.648438 0.9375 -1.71875 1.1875 -1.71875 C 1.3125 -1.71875 1.421875 -1.6875 1.515625 -1.625 C 1.609375 -1.570312 1.675781 -1.5 1.71875 -1.40625 C 1.769531 -1.3125 1.796875 -1.207031 1.796875 -1.09375 Z M 1.34375 -1.125 C 1.34375 -1.1875 1.320312 -1.234375 1.28125 -1.265625 C 1.25 -1.304688 1.191406 -1.328125 1.109375 -1.328125 C 1.015625 -1.328125 0.941406 -1.296875 0.890625 -1.234375 C 0.835938 -1.171875 0.800781 -1.09375 0.78125 -1 L 1.328125 -1 C 1.328125 -1.019531 1.328125 -1.039062 1.328125 -1.0625 C 1.335938 -1.082031 1.34375 -1.101562 1.34375 -1.125 Z M 1.34375 -1.125 "/></g></g></g><g fill="#ffffff" fill-opacity="1"><g transform="translate(8.865676, 4.628958)"><g><path d="M 1.828125 -1.21875 C 1.828125 -1.164062 1.820312 -1.109375 1.8125 -1.046875 L 1.640625 -0.0625 C 1.640625 -0.0390625 1.628906 -0.0234375 1.609375 -0.015625 C 1.597656 -0.00390625 1.582031 0 1.5625 0 L 1.203125 0 C 1.191406 0 1.179688 -0.00390625 1.171875 -0.015625 C 1.160156 -0.0234375 1.15625 -0.0351562 1.15625 -0.046875 C 1.15625 -0.0546875 1.15625 -0.0625 1.15625 -0.0625 L 1.328125 -1.046875 C 1.335938 -1.066406 1.34375 -1.085938 1.34375 -1.109375 C 1.34375 -1.140625 1.34375 -1.160156 1.34375 -1.171875 C 1.34375 -1.234375 1.328125 -1.269531 1.296875 -1.28125 C 1.273438 -1.300781 1.238281 -1.3125 1.1875 -1.3125 C 1.132812 -1.3125 1.078125 -1.300781 1.015625 -1.28125 C 0.953125 -1.257812 0.90625 -1.238281 0.875 -1.21875 L 0.671875 -0.0625 C 0.671875 -0.0390625 0.660156 -0.0234375 0.640625 -0.015625 C 0.628906 -0.00390625 0.613281 0 0.59375 0 L 0.234375 0 C 0.203125 0 0.1875 -0.015625 0.1875 -0.046875 C 0.1875 -0.0546875 0.1875 -0.0625 0.1875 -0.0625 L 0.46875 -1.640625 C 0.46875 -1.648438 0.472656 -1.660156 0.484375 -1.671875 C 0.503906 -1.679688 0.519531 -1.6875 0.53125 -1.6875 L 0.859375 -1.6875 C 0.890625 -1.6875 0.90625 -1.671875 0.90625 -1.640625 L 0.890625 -1.5625 C 0.960938 -1.613281 1.035156 -1.648438 1.109375 -1.671875 C 1.191406 -1.703125 1.273438 -1.71875 1.359375 -1.71875 C 1.441406 -1.71875 1.519531 -1.695312 1.59375 -1.65625 C 1.664062 -1.625 1.722656 -1.570312 1.765625 -1.5 C 1.804688 -1.4375 1.828125 -1.34375 1.828125 -1.21875 Z M 1.828125 -1.21875 "/></g></g></g><g fill="#ffffff" fill-opacity="1"><g transform="translate(10.675372, 4.628958)"><g/></g></g><g fill="#ffffff" fill-opacity="1"><g transform="translate(11.414625, 4.628958)"><g><path d="M 0.5625 -1.890625 C 0.53125 -1.890625 0.515625 -1.90625 0.515625 -1.9375 L 0.5625 -2.21875 C 0.570312 -2.226562 0.582031 -2.238281 0.59375 -2.25 C 0.601562 -2.269531 0.617188 -2.28125 0.640625 -2.28125 L 1.015625 -2.28125 C 1.054688 -2.28125 1.070312 -2.257812 1.0625 -2.21875 L 1.015625 -1.9375 C 1.015625 -1.925781 1.007812 -1.914062 1 -1.90625 C 0.988281 -1.894531 0.972656 -1.890625 0.953125 -1.890625 Z M 0.90625 -1.6875 C 0.945312 -1.6875 0.960938 -1.671875 0.953125 -1.640625 L 0.671875 -0.0625 C 0.671875 -0.0390625 0.664062 -0.0234375 0.65625 -0.015625 C 0.644531 -0.00390625 0.628906 0 0.609375 0 L 0.25 0 C 0.207031 0 0.191406 -0.0195312 0.203125 -0.0625 L 0.484375 -1.640625 C 0.484375 -1.648438 0.488281 -1.660156 0.5 -1.671875 C 0.507812 -1.679688 0.523438 -1.6875 0.546875 -1.6875 Z M 0.90625 -1.6875 "/></g></g></g><g fill="#ffffff" fill-opacity="1"><g transform="translate(12.272161, 4.628958)"><g><path d="M 1.828125 -1.21875 C 1.828125 -1.164062 1.820312 -1.109375 1.8125 -1.046875 L 1.640625 -0.0625 C 1.640625 -0.0390625 1.628906 -0.0234375 1.609375 -0.015625 C 1.597656 -0.00390625 1.582031 0 1.5625 0 L 1.203125 0 C 1.191406 0 1.179688 -0.00390625 1.171875 -0.015625 C 1.160156 -0.0234375 1.15625 -0.0351562 1.15625 -0.046875 C 1.15625 -0.0546875 1.15625 -0.0625 1.15625 -0.0625 L 1.328125 -1.046875 C 1.335938 -1.066406 1.34375 -1.085938 1.34375 -1.109375 C 1.34375 -1.140625 1.34375 -1.160156 1.34375 -1.171875 C 1.34375 -1.234375 1.328125 -1.269531 1.296875 -1.28125 C 1.273438 -1.300781 1.238281 -1.3125 1.1875 -1.3125 C 1.132812 -1.3125 1.078125 -1.300781 1.015625 -1.28125 C 0.953125 -1.257812 0.90625 -1.238281 0.875 -1.21875 L 0.671875 -0.0625 C 0.671875 -0.0390625 0.660156 -0.0234375 0.640625 -0.015625 C 0.628906 -0.00390625 0.613281 0 0.59375 0 L 0.234375 0 C 0.203125 0 0.1875 -0.015625 0.1875 -0.046875 C 0.1875 -0.0546875 0.1875 -0.0625 0.1875 -0.0625 L 0.46875 -1.640625 C 0.46875 -1.648438 0.472656 -1.660156 0.484375 -1.671875 C 0.503906 -1.679688 0.519531 -1.6875 0.53125 -1.6875 L 0.859375 -1.6875 C 0.890625 -1.6875 0.90625 -1.671875 0.90625 -1.640625 L 0.890625 -1.5625 C 0.960938 -1.613281 1.035156 -1.648438 1.109375 -1.671875 C 1.191406 -1.703125 1.273438 -1.71875 1.359375 -1.71875 C 1.441406 -1.71875 1.519531 -1.695312 1.59375 -1.65625 C 1.664062 -1.625 1.722656 -1.570312 1.765625 -1.5 C 1.804688 -1.4375 1.828125 -1.34375 1.828125 -1.21875 Z M 1.828125 -1.21875 "/></g></g></g></svg>